<svg xmlns="http://www.w3.org/2000/svg" width="1000" height="1003" viewBox="2.2 1.3 999.8 1002.6"><style>.a{fill:#252525;}</style><path d="M925.9 772.5c-0.9 0-1.7 0-2.6 0.1 -0.9 0.1-1.8 0.1-2.7 0.1 -25.1 0-46.8-22.1-49.5-50.2 -1.7-18-12.4-27.1-31.9-27.1 -9.5 0-21.1 2.2-34.5 6.6 -24.4 8-34.2 21.4-37.9 28.7l-0.1 0.2c-1.6 3.2-3.3 6.6-3.1 10.3 0.5 7.4 9.9 12.8 22.8 13 15.8 0.3 38.5 10.4 49.7 28.4 7.9 12.8 24.8 20.2 46.3 20.2 6.1 0 12.2-0.6 18.2-1.8 2.1-0.4 4.2-0.6 6.4-0.6 9.2 0 19 3.3 27.7 6.2 6.9 2.3 12.9 4.4 17.5 4.4 3.2 0 5.5-1 6.9-3.1 2.7-4.1 2.3-10.6-1.1-17C953.2 781.9 942.3 772.5 925.9 772.5zM957.3 806.6h0c-1 1.5-2.7 2.3-5.2 2.3 -4.2 0-10.1-2-16.8-4.2 -8.8-3-18.8-6.4-28.3-6.4 -2.3 0-4.5 0.2-6.7 0.6 -5.9 1.2-11.8 1.8-17.8 1.8 -20.8 0-37-7-44.6-19.2 -11.5-18.6-35-29-51.3-29.3 -11.8-0.2-20.4-4.8-20.9-11.1 -0.2-3.2 1.3-6.3 2.9-9.2l0.1-0.2c3.5-7 13-19.9 36.7-27.7 13.2-4.3 24.6-6.5 33.9-6.5 18.3 0 28.3 8.5 29.9 25.3 2.8 29.2 25.4 52 51.5 52 0.9 0 1.9 0 2.8-0.1 0.9-0.1 1.7-0.1 2.5-0.1 15.4 0 25.7 8.9 30.2 17.3C959.2 797.5 959.7 803.2 957.3 806.6z" class="a"/><path d="M832.7 717.6c-1.4-0.2-2.7-0.3-4.1-0.3 -17.8 0-29.5 16.3-30 17l-0.1 0.1c-1.7 3.2-1.9 5.8-0.8 7.7 1.5 2.4 4.9 3.6 10.7 3.6 3.4-0.1 6.8-0.3 10.2-0.8 0.5-0.1 1.1-0.1 1.6-0.1 3.2 0 6.5 1.2 9.6 2.3 3.1 1.1 6.3 2.2 9.4 2.2 1.7 0 3.4-0.4 5-1.2 4.1-2.1 6.4-8.5 5.4-14.9C848.2 724.7 841.9 718.9 832.7 717.6zM843.3 746.3h0c-1.3 0.6-2.7 1-4.1 1 -2.8 0-5.6-1-8.7-2.1 -3.3-1.2-6.7-2.4-10.3-2.4 -0.6 0-1.2 0-1.8 0.1 -3.3 0.5-6.6 0.7-9.9 0.8 -4.9 0-7.9-0.9-8.9-2.6 -0.8-1.3-0.5-3.2 0.8-5.6 0.7-1 12-16.1 28.3-16.1 1.3 0 2.5 0.1 3.8 0.3 12 1.7 14.6 10.3 15.2 13.9C848.5 739 846.6 744.6 843.3 746.3z" class="a"/><path d="M81.5 979.8c-9.6-26.2-20.9-42.6-30.9-45 -1.5-0.4-3.1-0.6-4.6-0.7 -1.7 0-2.8 0.5-3.4 1.5C41.2 937.7 43 941.4 46 947.3c4.6 9.3 11.7 23.4 9 38.8 -1.1 6.6-0.9 12.4-0.1 17.7h2.4c-0.1-0.9-0.3-1.7-0.4-2.6 -0.6-4.9-0.4-9.9 0.4-14.8C60 970.4 52.8 956 48.1 946.4c-2.2-4.4-4.3-8.6-3.5-9.8 0.3-0.4 1.1-0.5 1.7-0.5 1.4 0.1 2.8 0.3 4.2 0.6 9.3 2.3 20.3 18.6 29.5 43.8 2.4 6.6 4.6 13.6 6.6 20.7 0.2 0.9 0.5 1.7 0.7 2.6h1.8c-0.2-0.9-0.5-1.8-0.7-2.6C86.3 993.9 84 986.6 81.5 979.8z" class="a"/><path d="M2.2 597.9v2c0 0 0 0 0.1 0v-2C2.2 597.9 2.2 597.9 2.2 597.9z" class="a"/><path d="M2.2 626.8v2.6c0 0 0 0 0 0v-2.6C2.2 626.8 2.2 626.8 2.2 626.8z" class="a"/><path d="M13.6 647c3.6 15.4 24.6 45.5 56.7 45.5 1.2 0 2.3 0 3.5-0.1 18.9-1.3 33.1-13.6 44.6-23.6 8.2-7.1 15.1-13.1 21.2-12.7 3.4 0.3 6.8-0.8 9.4-3 2.6-2.2 4.3-5.4 4.6-8.8 0.6-6.4-3.4-13.8-13.8-15.9 -2.1-0.4-4.2-0.6-6.3-0.6 -7.1 0-14.5 2-21.7 3.9 -7 1.9-13.5 3.6-19.6 3.6 -3.9 0.1-7.8-0.9-11.2-2.9 -3-1.9-6.4-4.3-9.9-6.7 -15-10.4-33.8-23.4-54.7-25.7 -5.5-0.6-10.1-1.3-14.1-2.1v2c4 0.8 8.5 1.5 13.9 2.1 20.4 2.2 38.9 15.1 53.8 25.4 3.6 2.5 6.9 4.8 10 6.8 3.7 2.2 7.9 3.4 12.2 3.2 6.3 0 13-1.8 20.1-3.7s14.4-3.8 21.2-3.8c2 0 4 0.2 5.9 0.6 9.8 2 12.7 8.6 12.2 13.7 -0.5 4.8-4.1 10-10.9 10 -0.3 0-0.6 0-1 0 -6.8-0.5-14.1 5.8-22.6 13.2 -11.2 9.7-25.1 21.8-43.4 23.1 -1.1 0.1-2.2 0.1-3.3 0.1 -29.6 0-51.1-28.2-54.8-44 -2-8.7-7.2-14.8-13.3-19.7v2.6C7.5 633.9 11.9 639.5 13.6 647z" class="a"/><path d="M468.4 442.2l-0.2-0.1 -3.5-2.5c-10.7-7.7-21.7-15.7-27-28 -3.4-7.9-4.1-16.4-4.7-24.6 -0.3-5.6-1.1-11.3-2.2-16.8 -2.6-11.5-10.2-19.2-23.8-24.3 -4.8-1.8-9.8-3.3-14.6-4.7 -8.7-2.6-17.8-5.3-25.8-9.9 -12.9-7.3-16.3-20.8-19.9-35.1 -2.5-10-5.1-20.3-11.2-28.3 -7.7-10.1-19.7-17.3-33.7-20.3 -3.9-0.8-8-1.3-12-1.3 -6.9 0.1-13.7 1.3-20.2 3.6 -11.7 4.1-24.5 5.7-36.9 7.3l-5.9 0.8c-6.8 0.9-13.7 1.8-20.3 2.6 -12.9 1.6-26.2 3.3-39.2 5.2 -1.4 0.2-2.9 0.4-4.5 0.6 -12.2 1.7-29 3.9-35.7 15.7 -3.9 6.8-2.4 15.8 3.9 24.1 2.8 3.6 6.3 6.2 9.7 8.6 2.8 1.8 5.3 3.9 7.7 6.3 6.7 7 7.6 17.6 8 26.9 0.2 4.4 0.1 8.8 0 13 -0.3 11.3-0.6 23 4.6 34.3 5.7 12.2 15.9 23.2 29.6 31.9 12.8 8.1 26.6 13.1 40 14.4 2.5 0.2 4.9 0.4 7.2 0.4 9.5 0 21.9-2 27.7-11.8 1.6-2.8 2.8-5.8 3.8-8.9 0.5-1.5 1-3 1.6-4.5 2-5.2 5.3-9.9 9.6-13.4 9-7.1 20.1-10.9 31.6-10.9 1.4 0 2.9 0.1 4.3 0.2 6.8 0.6 13.3 2.7 19.1 6.4 6.8 4.3 11 10.2 15.9 17.5 4.7 7.1 10.9 13.1 18.1 17.6 2.4 1.5 5 2.9 7.5 4.2 3.2 1.6 6.3 3.4 9.2 5.4 5.5 3.9 9.8 9.3 12.3 15.6 3.2 7.8 8.2 14.7 14.6 20.1 6.6 5.5 14 9.9 20.5 13.5 17.1 9.5 31.9 14.3 44 14.3 9.5 0 15.5-3 18.8-5.6 4-2.9 6.7-7.2 7.5-12.1 1-7.9-2.5-17.7-6.4-22.3C488.9 457.3 478.5 449.6 468.4 442.2zM501.7 488.9c-0.7 4.4-3.1 8.3-6.7 10.8 -3.1 2.4-8.7 5.2-17.6 5.2 -11.8 0-26.2-4.7-43-14.1 -6.4-3.5-13.7-7.9-20.1-13.3 -6.2-5.2-11-11.8-14.1-19.3 -2.6-6.6-7.2-12.3-13-16.4 -3-2-6.2-3.8-9.4-5.5 -2.4-1.3-5-2.6-7.4-4.1 -7-4.4-12.9-10.1-17.5-17 -5-7.5-9.4-13.6-16.5-18.1 -6-3.8-12.9-6.1-20-6.7 -1.5-0.1-3-0.2-4.4-0.2 -11.9 0-23.5 4-32.9 11.4 -4.6 3.8-8.2 8.7-10.3 14.2 -0.6 1.5-1.1 3.1-1.6 4.6 -0.9 3-2.1 5.8-3.6 8.6 -5.3 9-17.1 10.8-26 10.8 -2.2 0-4.6-0.1-7-0.4 -13.1-1.3-26.6-6.2-39.1-14.1 -13.3-8.5-23.3-19.2-28.8-31 -5.1-10.8-4.8-21.8-4.5-33.4 0.1-4.3 0.2-8.7 0-13.1 -0.3-9.7-1.3-20.7-8.5-28.2h0c-2.4-2.4-5.1-4.6-8-6.5 -3.4-2.5-6.7-4.8-9.3-8.2 -2.2-2.9-8.9-12.9-3.7-21.9 6.3-10.9 21.8-13 34.3-14.7 1.6-0.2 3.1-0.4 4.5-0.6 13-2 26.3-3.6 39.2-5.2 6.7-0.8 13.6-1.7 20.4-2.6l5.9-0.8c12.5-1.6 25.4-3.2 37.3-7.4 6.3-2.3 12.9-3.5 19.6-3.5 3.9 0 7.8 0.4 11.6 1.3 13.5 2.9 25.1 9.8 32.5 19.5 5.9 7.7 8.4 17.8 10.9 27.6 3.5 14.1 7.2 28.6 20.9 36.4 8.2 4.6 17.4 7.4 26.2 10 4.8 1.4 9.8 2.9 14.5 4.7 12.9 4.8 20.1 12.1 22.6 22.9 1.1 5.4 1.8 11 2.2 16.5 0.7 8.4 1.4 17 4.9 25.2 5.5 12.8 16.8 21 27.7 28.9l3.5 2.6 0.2 0.1c10 7.3 20.3 14.9 28.4 24.4C499.3 472.4 502.6 481.8 501.7 488.9z" class="a"/><path d="M366.9 355.2c-17.6-5.9-35.8-11.9-42.1-23.7 -3.9-7.3-4.3-13.2-4.7-20 -0.4-6.8-0.8-14.4-5-24.9 -4.8-12.3-15.6-19.4-29.5-19.4 -7.5 0.1-14.9 1.9-21.7 5.3 -12.9 6.4-30.8 7.3-46.6 7.3 -5.9 0-11.8-0.1-17.6-0.3l-6.3-0.1c-25-0.5-26 12.2-26 13.4 -1.4 9.6 2.4 14.9 6.4 20.5 4.9 6.8 9.9 13.9 7.2 30 -0.5 3-1.1 5.8-1.7 8.6 -3.6 16.9-6.5 30.2 20.6 49.9 8.1 5.9 15.5 8.7 22.8 8.7 14 0 25.4-10.7 37.4-21.9 4-3.7 8.1-7.6 12.5-11.2 7.6-6.3 16.3-9.3 26.8-9.3 16.6 0 34.1 7.8 48.2 14.1l2.9 1.3c3.6 1.6 7.1 3.3 10.5 5 9.5 4.6 18.4 9 25.6 9 7.6 0 12.6-4.8 15.3-14.6C405.9 368.2 386.9 361.9 366.9 355.2zM399.9 382.2c-2.5 9-6.7 13.2-13.3 13.2 -6.8 0-15.5-4.3-24.7-8.8 -3.4-1.7-7-3.4-10.5-5l-2.9-1.3c-14.2-6.4-32-14.3-49-14.3 -10.8 0-20.3 3.3-28.1 9.8 -4.4 3.7-8.6 7.6-12.6 11.4 -11.7 11-22.8 21.4-36 21.4 -6.9 0-14-2.7-21.7-8.3 -26-18.9-23.3-31.7-19.8-47.9 0.6-2.8 1.2-5.6 1.7-8.7 2.8-16.9-2.7-24.6-7.5-31.4 -3.9-5.6-7.3-10.3-6-19.1v-0.1c0-0.1 0.3-11.5 22.6-11.5h1.4l6.3 0.1c5.8 0.1 11.8 0.3 17.7 0.3 16.1 0 34.3-0.9 47.5-7.5 6.4-3.3 13.5-5 20.8-5.1 7.7 0 21.5 2.4 27.6 18.1 4 10.3 4.5 17.7 4.8 24.3 0.4 6.6 0.8 13.1 4.9 20.8 6.7 12.5 25.3 18.7 43.2 24.7C386.2 363.8 403.4 369.5 399.9 382.2z" class="a"/><path d="M278.8 290.5c-2.7-1-5.5-1.6-8.3-1.6 -5.4 0-9.8 2.1-14.6 4.3 -4.4 2.1-9 4.3-15.1 5.2 -1.8 0.3-3.6 0.4-5.5 0.4 -2.5 0-4.9-0.2-7.4-0.5 -1.9-0.3-3.9-0.4-5.9-0.5 -5 0-10.7 1.4-18.1 11.5 -7.7 10.5-4.7 19-1.7 28 2.3 6.8 4.8 13.8 2.6 22.3 -5.2 20.6 8.5 26.1 8.6 26.1 3.1 1.6 6.5 2.4 10 2.4 7.1 0 14.4-3.7 20.5-10.5s9.8-15.5 9.1-20.9c-0.6-5.7-0.1-9.4 1.6-11.3 1.5-1.7 4.1-2.2 8-1.6 3.7 0.7 7.4 1.1 11.1 1.1 9.2 0 15.9-3.3 20.4-10.1 3.9-5.8 4.4-15.2 1.4-24.5C292.4 300.7 286.1 293.2 278.8 290.5zM292.6 333.9c-4.1 6.2-10.3 9.2-18.7 9.2 -3.6-0.1-7.2-0.4-10.8-1.1 -4.6-0.8-7.8 0-9.8 2.2 -2.2 2.4-2.9 6.5-2.1 12.9 0.6 5-3.1 13.1-8.7 19.4 -5.6 6.3-12.4 9.9-19 9.9 -3.2 0-6.4-0.8-9.2-2.3 -0.1 0-12.2-4.9-7.4-23.8 2.3-9.1-0.2-16.4-2.7-23.5 -3-8.9-5.6-16.5 1.4-26.2l0 0c6.5-8.8 11.3-10.6 16.5-10.6 1.9 0 3.8 0.2 5.7 0.4 2.5 0.3 5.1 0.5 7.6 0.6 1.9 0 3.9-0.1 5.8-0.4 6.3-1 11.3-3.3 15.6-5.4 4.7-2.2 8.8-4.1 13.7-4.1 2.6 0 5.2 0.5 7.6 1.5 6.8 2.5 12.6 9.5 15.6 18.8C296.5 319.9 296.1 328.6 292.6 333.9z" class="a"/><path d="M2.2 292.9v2.2c0 0 0 0 0 0v-2.2C2.2 292.9 2.2 292.9 2.2 292.9z" class="a"/><path d="M2.2 267.1v2c0 0 0 0 0 0v-2C2.2 267.1 2.2 267.1 2.2 267.1z" class="a"/><path d="M40.5 309.1c0 0 1.1 0.1 2.9 0.1 7.4 0 31.7-1.8 36.4-24.5 1.3-6.3 0.7-10.8-1.8-13.9s-6.5-4.4-12.4-4.4c-5.3 0-11.5 1.2-16.9 2.2 -3.6 0.7-7 1.3-9.6 1.5 0 0-1.9 0.1-5.1 0.1 -10.6 0-21.3-1-31.7-3.1v2c10.4 2 21.1 3 31.7 3 3.2 0 5.1-0.1 5.2-0.1 2.8-0.2 6.2-0.9 9.9-1.6 5.3-1 11.4-2.1 16.6-2.1 5.3 0 8.9 1.2 10.9 3.6 2 2.4 2.6 6.7 1.4 12.2C73.6 304.9 52.4 307.1 43.4 307.1c-1.7 0-2.7-0.1-2.8-0.1 -8.1 0-17.4-4.4-27.1-9 -3.7-1.7-7.4-3.5-11.2-5.1v2.2c3.5 1.5 7 3.1 10.4 4.7C22.6 304.6 32 309.1 40.5 309.1z" class="a"/><path d="M970.6 464.3c-12.8-8.9-25-17.3-57.6-21.3 -8.4-1-14.7-4.2-18.7-9.4 -5.2-6.8-6.7-17.1-4.5-31.5 2.6-17.5 34-43.4 58.7-43.4 3 0 6.1 0.4 9 1.3 11 3.1 22.4 4.7 33.9 4.6 3.5 0 7-0.1 10.5-0.4v-1.9c-3 0.2-6.5 0.4-10.5 0.4 -11.3 0.1-22.5-1.4-33.3-4.5 -3.1-0.9-6.4-1.4-9.6-1.3 -26 0-57.9 26.5-60.7 45.1 -2.2 15-0.7 25.7 4.8 33 4.2 5.5 11 8.9 20 10 32.2 4 44.1 12.2 56.7 21 8.5 5.9 17.3 12 32.6 17v-2.1C987.4 475.9 978.9 470 970.6 464.3z" class="a"/><path d="M251.2 760.8c-5.9-2.9-11.5-5.7-13.6-8.9 -3.5-5.6-8.6-8.5-14.8-8.5 -5.9 0-12.5 2.6-19.8 7.6 -8.1 5.6-29.6 18.7-53.2 18.7 -6.9 0-13.8-1.2-20.3-3.7 -8.3-3.2-15.7-4.9-21.8-4.9 -10.8 0-14.3 5.1-14.4 5.2 -10.8 13.1-6.8 21.7-1.4 33.6 2.1 4.3 3.9 8.7 5.4 13.3 3.8 11.4 11.2 14.3 18.2 17.1 5.8 2.3 11.2 4.4 15.1 10.9 9.1 15.2 16.1 24.6 35.2 26.5 1.1 0.1 2.2 0.2 3.2 0.2 13.5 0 21.3-8.8 28.9-17.4 2-2.2 4-4.5 6.2-6.7 4.6-4.6 10.7-6.4 16.6-8.1 7.6-2.2 14.7-4.3 16.9-12.2 1.6-5.9 7.7-10.7 14.1-15.8 7.6-6 16.2-12.9 19.2-22.9C274.7 772.4 262.2 766.2 251.2 760.8zM269.1 784.2c-2.8 9.4-10.8 15.7-18.5 21.9 -6.7 5.3-13 10.4-14.8 16.9 -1.9 6.9-8.2 8.7-15.5 10.9 -5.9 1.7-12.5 3.7-17.5 8.7 -2.2 2.2-4.2 4.5-6.2 6.8 -7.6 8.6-14.8 16.7-27.4 16.7 -1 0-2 0-3-0.1 -18.6-1.8-24.9-10.9-33.7-25.5 -4.2-7.1-10.3-9.4-16.1-11.7 -7-2.7-13.6-5.3-17.1-15.9 -1.6-4.6-3.5-9.1-5.6-13.5 -5.3-11.7-8.8-19.4 1.2-31.6 0 0 3.1-4.4 12.8-4.4 5.9 0 13 1.6 21.1 4.8 6.7 2.6 13.8 3.9 21 3.8 24.2 0 46-13.3 54.3-19 7-4.8 13.2-7.2 18.7-7.2s10 2.6 13.1 7.6c2.3 3.7 8.2 6.6 14.4 9.6C261.1 767.9 272.3 773.4 269.1 784.2z" class="a"/><path d="M215.2 767.2c-5.4 0-11.9 2.7-17.7 7.4 -11.7 9.4-26 11.3-26 11.3 -1.3 0.1-2.6 0.1-3.9 0.1 -7.7 0-14.5-1.6-20.5-3 -4.8-1.1-9-2.1-12.8-2.1 -6.7 0-11.2 3.2-14.4 10.4 -3.2 6.9-2.5 14.9 1.8 21.1 7.6 11.9 25.2 19.3 45.8 19.3 2.4 0 4.8-0.1 7.2-0.3 39.5-3.1 54.1-35.4 52.9-51.3C226.9 771.9 222.4 767.2 215.2 767.2zM174.4 829.4c-2.4 0.2-4.8 0.3-7.1 0.3 -19.9 0-36.8-7-44.1-18.3 -3.9-6.1-4.5-12.8-1.6-19.2 2.9-6.5 6.7-9.2 12.6-9.2 3.6 0 7.6 1 12.4 2.1 6.1 1.4 13.1 3.1 21 3.1 1.3 0 2.7 0 4-0.1 9.9-1.6 19.2-5.6 27.1-11.7 5.5-4.4 11.5-6.9 16.5-6.9 6.2 0 9.8 3.8 10.3 11.1C226.6 795.4 212.4 826.4 174.4 829.4z" class="a"/><path d="M2.2 362.1v2c0 0 0 0 0.1 0v-2C2.2 362.1 2.2 362.1 2.2 362.1z" class="a"/><path d="M2.2 480.9v2.1c0 0 0 0 0 0v-2.1C2.2 480.9 2.2 480.9 2.2 480.9z" class="a"/><path d="M68.2 539.5c2.6 5.9 5.2 12 8.5 18.3 10.9 20.9 35.5 28.4 54.9 28.4 12 0 22.7-2.8 28.6-7.4 9.1-7.1 15-9.9 21.2-9.9 4.9 0 10.2 1.8 17.8 6 7.3 4.1 15.6 6.3 24 6.3 11.2-0.1 22.1-3.7 31.1-10.3 9.6-6.9 20.4-11 29.1-11 9.3 0 15.9 4.5 19.4 13.3 5.1 12.6 18.8 15.1 32.1 17.5 10 1.8 19.5 3.6 24.8 9.4 2.1 2.3 4.1 4.7 6.3 7.3 10.6 12.6 22.7 26.9 40.5 26.3s32.2 9 49 20.1c2.5 1.7 5.1 3.4 7.8 5.1 13.7 8.9 37.3 17.8 55.8 17.8 13.6 0 23-4.9 27-14.3 6.8-15.5-6.9-24.5-22.7-34.8 -12.3-8.1-26.3-17.2-35.4-31.4 -17-26.6-52.3-39.8-75.7-48.6 -6.4-2.4-11.9-4.5-16.1-6.4 -15.4-7.2-22.8-23.9-31.4-43.3 -2.3-5.3-4.7-10.7-7.4-16.2 -9.1-18.6-24.1-25.2-34.2-25.2 -5 0-9 1.6-10.8 4.4 -3.9 5.9-14.6 15.7-30 15.7 -2 0-4-0.2-6-0.5 -1.2-0.2-2.5-0.3-3.7-0.3 -8.5 0-14.5 5-20.8 10.3 -5.5 4.6-11.1 9.3-18.8 11 -2.1 0.5-4.2 0.7-6.3 0.7 -14.3 0-24.4-11.5-32.7-22.3 -6-7.8-11.7-10.7-21.1-15.4 -9-4.4-17.7-9.4-26.2-14.8 -14.1-9.1-19.1-16.9-25.4-26.9 -6.2-9.7-13.2-20.7-30.4-36 -21.3-18.8-45.4-22.8-61.9-22.8 -5.7-0.1-11.4 0.4-17 1.5 0 0-3.7 0.7-9.5 1.1v2c6-0.5 9.8-1.1 9.9-1.2 5.5-1.1 11-1.6 16.6-1.5 16.2 0 39.8 3.9 60.6 22.3 17 15.1 24 26 30.1 35.6 6.2 9.8 11.6 18.2 26 27.5 8.5 5.5 17.3 10.4 26.4 14.9 9.1 4.6 14.6 7.4 20.4 14.9 8.6 11.2 19.1 23.1 34.3 23.1 2.3 0 4.5-0.3 6.7-0.8 8.1-1.8 14-6.7 19.6-11.4 6.1-5.1 11.8-9.8 19.6-9.8 1.1 0 2.3 0.1 3.4 0.3 2.1 0.4 4.2 0.5 6.4 0.5 12.6-0.2 24.4-6.4 31.6-16.6 1.5-2.2 4.9-3.5 9.2-3.5 10.3 0 24.3 7.5 32.4 24.1 2.7 5.5 5.1 10.9 7.4 16.2 8.7 19.7 16.3 36.8 32.4 44.3 4.3 2 9.8 4.1 16.2 6.5 23.1 8.7 58 21.8 74.7 47.8 9.3 14.6 23.5 23.9 36 32 16.3 10.7 28.1 18.4 22 32.4 -3.8 8.7-12.3 13.1-25.2 13.1 -18.1 0-41.2-8.8-54.7-17.5 -2.6-1.7-5.2-3.4-7.7-5.1 -16.6-11-31-20.4-48.6-20.4h-1.6c-16.7 0.5-28-12.8-38.9-25.6 -2.2-2.6-4.2-5-6.4-7.4 -5.7-6.3-15.5-8.1-25.9-10 -12.7-2.3-25.9-4.8-30.6-16.3 -3.8-9.5-11.2-14.5-21.3-14.5 -9.1 0-20.2 4.2-30.2 11.4 -8.7 6.4-19.1 9.9-29.9 9.9 -8.1 0-16-2.1-23-6 -7.8-4.4-13.4-6.2-18.7-6.2 -7.6 0-14.4 4.1-22.4 10.3 -5.6 4.4-15.8 7-27.4 7 -18.8 0-42.6-7.2-53.1-27.3 -3.2-6.2-5.9-12.3-8.5-18.2C59.6 514.9 50.7 494.4 9.2 483c-2.5-0.7-4.8-1.4-7-2.1v2.1c2 0.7 4.1 1.3 6.4 1.9C49.2 496 57.5 515.2 68.2 539.5z" class="a"/><path d="M2.2 389.5v2c0 0 0 0 0.1 0v-2C2.2 389.5 2.2 389.5 2.2 389.5z" class="a"/><path d="M2.2 453.1v2.1c0 0 0 0 0 0v-2.1C2.2 453.1 2.2 453.1 2.2 453.1z" class="a"/><path d="M37.2 449.2c3.6-1.3 7-2.5 9.9-3.3 1.9-0.5 3.9-0.8 5.9-0.8 10.5 0 20.4 8.1 27 22.3C86.9 482 112.2 495 127.4 495c0.6 0 1.1 0 1.6-0.1s0.8 0 1.2 0c12.9 0 30.7 14.4 42 26.7 8.6 9.4 26.9 19.8 39.4 19.8 3.2 0.2 6.4-0.8 9-2.7 3.3-2.6 3.4-5.5 2.9-7.5 -1.8-7.4-16.3-16.1-32.3-19.3 -9.6-1.9-13.6-7.5-18.2-14.1 -4.6-6.5-9.8-13.8-21.6-17.9 -21.1-7.3-32.6-25.4-47.2-48.4l-3.4-5.2C84.9 401.8 62.4 388.8 35.5 388.8c-1.9 0-3.8 0.1-5.7 0.2 -6.8 0.5-13.2 0.7-19.7 0.7 -2.7 0-5.3 0-7.8-0.1v2c2.5 0.1 5.1 0.1 7.8 0.1 6.6 0 13.1-0.2 19.9-0.7 1.9-0.1 3.7-0.2 5.5-0.2 26.2 0 48.2 12.7 63.6 36.7l3.3 5.2c14.2 22.4 26.5 41.7 48.2 49.2 11.2 3.9 16 10.7 20.7 17.2 4.7 6.5 9.1 12.8 19.5 14.9 15.1 3 29.2 11.2 30.8 17.8 0.5 2.1-0.2 3.8-2.2 5.4 -2.2 1.6-5 2.4-7.7 2.3 -12 0-29.6-10.1-37.9-19.1 -12.1-13.2-29.9-27.4-43.5-27.4 -0.5 0-0.9 0-1.3 0 -0.5 0-1 0.1-1.5 0.1 -14.5 0-39.2-12.8-45.5-26.5 -6.9-14.8-17.4-23.4-28.7-23.4 -2.2 0-4.3 0.3-6.4 0.9 -3 0.8-6.5 2.1-10.1 3.4 -8.4 3-17.9 6.5-27.1 6.5 -2.4 0-4.8-0.3-7.2-0.8v2.1c2.4 0.5 4.8 0.7 7.2 0.7C19 455.9 28.7 452.3 37.2 449.2z" class="a"/><path d="M989.6 446.3c-15.8-14.8-31.7-19.5-43.4-22.8 -8.2-2.4-14.1-4.1-16.2-8.2 -1.3-2.8-1.1-6.6 0.8-12h0c0.2-0.6 6-15.3 28-14.4 6.6 0.3 12.9 0.8 18.9 1.2 7.7 0.6 15.6 1.1 24.2 1.4v-2c-8.6-0.2-16.4-0.8-24.1-1.4 -6.1-0.4-12.4-0.9-19-1.2 -23.5-1-29.9 15.5-30 15.7 -2.1 6-2.4 10.3-0.7 13.5 2.5 4.8 8.8 6.6 17.5 9.2 11.5 3.3 27.1 7.9 42.6 22.4 3.8 3.7 8.6 6.2 13.8 7.4v-2C997.4 452 993.1 449.6 989.6 446.3z" class="a"/><path d="M385.7 559.3c-13.1-8.7-26.7-17.6-30.9-24l-0.5-0.7c-9.7-14.6-15.1-22.7-35.3-23.7 -8.2-0.4-12.8-2.9-17.2-5.3 -4.6-2.5-8.9-4.8-16.6-4.8 -3.5 0.1-7 0.5-10.5 1.2 -20.1 4-19.7 23.6-18.6 31.9 0.1 0.5 0.1 1 0.2 1.5 0.3 2.5 0.6 5 2.1 7.2 1.5 2.2 4.1 3.3 7.6 3.3 7 0 16.9-4.7 22.6-9.1 2.5-1.8 5.6-2.7 8.7-2.5 9.2 0 21.2 6.2 24.8 16.1 4.9 13.7 17.3 22.2 32.3 22.2 2.3 0 4.5-0.2 6.8-0.5 0.9-0.1 1.8-0.2 2.7-0.2 8.7 0 18.9 5.8 27.9 10.9 7.6 4.3 14.2 8 19 8 1.9 0.1 3.7-0.7 5-2.1 0.8-0.8 1.2-2 1-3.2C415.9 579.2 401.9 570 385.7 559.3zM414 587.3c-0.9 1-2.2 1.5-3.5 1.4 -4.3 0-11-3.8-18-7.8 -9.2-5.2-19.7-11.2-28.9-11.2 -1 0-2 0.1-3 0.2 -2.1 0.3-4.3 0.5-6.5 0.5 -14.2 0-25.8-8-30.4-20.9 -3.9-10.9-16.6-17.4-26.7-17.4 -3.5-0.1-7 0.9-9.9 3 -5.4 4.2-14.8 8.7-21.4 8.7 -2.8 0-4.8-0.8-5.9-2.5 -1.1-1.6-1.4-4-1.7-6.3 -0.1-0.5-0.1-1-0.2-1.5 -1.2-9.6-0.8-26.1 17-29.7v0c3.3-0.7 6.6-1.1 10-1.1 7.2 0 11.3 2.2 15.7 4.6 4.6 2.5 9.4 5.1 18 5.5 19.2 1 24 8.3 33.7 22.8l0.5 0.8c4.5 6.7 18.2 15.8 31.5 24.5 14.4 9.5 29.4 19.4 30 24.7C414.6 586.3 414.4 586.9 414 587.3z" class="a"/><path d="M787.3 369c-16-7.3-27.8-14.7-38.2-29.1 -6.2-8.7-13.5-10.5-18.4-10.5 -2.7 0-5.5 0.5-8 1.6 -6.5 3.7-6.1 10.6-5.5 18.6 0.3 5 0.7 10.6-0.5 16.4 -2.9 14.9-25.9 39.8-37.7 51 -5.4 5.1-7.8 12.5-6.4 19.8 1.7 8.7 7.6 15.9 15.8 19.3 8.1 3.4 15.2 10.9 21.5 17.5 6.1 6.4 11.4 12 16.7 13.2 1 0.2 2 0.3 3 0.3 10.3 0 22.9-11.4 27-24.3 2-6.2 12-15.9 21.8-25.3 11.1-10.7 22.5-21.7 24.2-29.3C805.5 394.6 803.2 376.3 787.3 369zM800.6 407.7c-1.5 7.1-12.8 17.9-23.6 28.3 -10.4 10-20.2 19.4-22.3 26.1 -3.9 12.2-15.6 22.9-25.1 22.9 -0.9 0-1.7-0.1-2.6-0.3 -4.7-1.1-10-6.7-15.7-12.6 -6.4-6.7-13.7-14.4-22.2-18 -7.6-3.1-13.1-9.7-14.6-17.8 -1.3-6.6 0.9-13.4 5.8-18 12.8-12 35.2-36.6 38.3-51.9v0c1.2-6.1 0.8-11.8 0.5-16.9 -0.5-7.9-0.9-13.7 4.5-16.7 2.2-0.9 4.6-1.4 7.1-1.4 4.5 0 11.1 1.7 16.8 9.6 10.6 14.7 22.8 22.3 39 29.7C801.3 377.6 803.3 394.9 800.6 407.7z" class="a"/><path d="M752.7 372c-1.6-0.3-3.1-0.4-4.7-0.4 -10.5 0-14.9 7.2-20.4 16.2 -3.7 6.1-7.9 13-14.9 19.4 -19.4 17.5-10.7 31.8-10.6 31.9 7.1 10.4 15.6 12.6 21.4 12.6 11.2 0 21-7.6 25-15.1 2.8-5.3 8.5-9.6 14.5-14.1 8-6 16.3-12.3 18.1-21.7 1.3-6.8 0.5-12.2-2.5-16.5C774.4 378.2 766.2 374.3 752.7 372zM779.1 400.3c-1.7 8.7-9.6 14.7-17.4 20.5 -6.2 4.6-12 9-15 14.8 -3.6 7-12.8 14-23.2 14 -7.7 0-14.6-4-19.8-11.6 -0.1-0.1-7.9-12.9 10.2-29.3l0 0c7.3-6.5 11.5-13.6 15.3-19.8 5.4-8.9 9.3-15.3 18.7-15.3 1.5 0 2.9 0.1 4.4 0.4 12.9 2.2 20.7 5.8 24.5 11.4C779.6 389.2 780.3 394.1 779.1 400.3z" class="a"/><path d="M567.6 276.9c-0.9 0-1.9 0-2.8 0.1 -5.2 0.5-8.9 2.3-11.1 5.4 -4.5 6.4-1.7 17 0.9 27.2 0.9 3.4 1.7 6.6 2.3 9.6 2.9 15.6-4.9 40.3-5 40.6 -2.1 9.1-0.6 16.9 4.5 23.4 8.2 10.3 23.3 13.9 34.8 13.9 0.9 0 1.8 0 2.7-0.1 16.1-0.8 23-14.7 29.6-28.3 2.1-4.5 4.5-8.9 7.2-13.2 10.2-15.3-3.5-39.6-13.1-49.3C608.8 297.5 588.2 276.9 567.6 276.9zM629 354.4c-2.7 4.3-5.2 8.8-7.3 13.4 -6.4 13-13 26.5-27.9 27.2 -0.9 0-1.7 0.1-2.6 0.1 -11 0-25.5-3.5-33.2-13.2 -4.7-5.9-6.1-13.2-4.1-21.6v0c0.3-1 8-25.4 5-41.5 -0.6-3.1-1.4-6.3-2.3-9.7 -2.5-9.8-5.2-19.9-1.2-25.6 1.8-2.6 5-4.1 9.6-4.6 0.9-0.1 1.7-0.1 2.6-0.1 19.7 0 39.9 20.2 48.6 28.8C625.4 316.9 638.6 340.1 629 354.4z" class="a"/><path d="M634.2 1.3h-2.4c0 0-0.1 0.1-0.1 0.1h2.4C634.1 1.4 634.1 1.3 634.2 1.3z" class="a"/><path d="M604.3 1.2h-2.2c0 0.1-0.1 0.2-0.1 0.2h2.2C604.2 1.3 604.2 1.2 604.3 1.2z" class="a"/><path d="M571.9 86.9c0.3 6.5 2.2 12.8 4 18.8 1.9 6.5 3.9 13.3 3.9 20.1 -0.1 10.1-3.1 20.8-9.1 31.6l-2.3 4.1c-16.2 29.2-26 46.7 21.4 73.3 25.6 14.4 35 25.5 42.6 34.5 6.8 8.1 12.2 14.4 26.3 19.6 20.9 7.6 36 19.9 41.3 33.6 3.7 9.4 2.8 19.4-2.5 29.6 -5.7 10.9-16.1 22.5-26.2 33.7 -18.4 20.4-37.4 41.5-29.9 60.5 5.5 13.8 18.3 19.5 30.8 25.1 13.5 6 26.2 11.6 26.5 27.3 0.1 5-0.1 11-0.2 17.3 -1 32.8-2.4 82.3 33 90.3 9.7 2.2 17.2 1 22.3-3.6 11.5-10.5 8.1-36.6 5.7-55.7 -0.6-4.6-1.1-8.9-1.4-12.4 -2-24 9.7-59.8 28.2-71.7 34.3-22 52.1-44.3 53.1-66.1 1.1-24.3-2.8-25.7-21.4-32.6 -4.4-1.6-10-3.7-16.5-6.4 -36.1-15.2-51.6-30.2-53.4-51.8 -0.4-6.4-0.5-12.8-0.2-19.2 0.4-18.9 0.9-38.5-14.9-50.1 -11.9-8.8-25.3-8.6-38.3-8.4 -9.8 0.1-19.1 0.3-26.4-3.7 -25.2-13.6-57.9-35-50.2-63.5 7.6-28.1 2.5-43.6-2.5-58.5 -0.7-2.2-1.5-4.4-2.2-6.7 -11.1-36.1-4.7-67 19.1-91.7l0.1-0.1c0-0.1 0.7-1 1.8-2.5h-2.4c-0.5 0.7-0.8 1.1-0.9 1.3 -24.3 25.3-30.9 56.8-19.5 93.6 0.7 2.3 1.5 4.6 2.2 6.8 4.9 14.7 9.9 29.8 2.5 57.4 -9 33.4 36.3 57.8 51.2 65.8 7.8 4.2 17.4 4.1 27.4 3.9 12.7-0.2 25.8-0.4 37.1 8 14.9 11.1 14.5 30.1 14 48.5 -0.3 6.5-0.2 13 0.2 19.5 1.9 22.5 17.7 38 54.6 53.5 6.6 2.8 12.1 4.8 16.6 6.4 18.3 6.7 21.2 7.8 20.1 30.6 -1 21.2-18.5 42.9-52.2 64.5 -19.1 12.3-31.1 49-29.1 73.6 0.3 3.6 0.9 8 1.4 12.5 2.4 18.6 5.7 44.2-5 53.9 -4.5 4.1-11.4 5.2-20.5 3.1 -33.8-7.6-32.5-54.2-31.5-88.3 0.2-6.4 0.4-12.4 0.3-17.4 -0.4-16.9-13.6-22.8-27.7-29 -12.1-5.4-24.6-10.9-29.7-24 -7-17.8 11.5-38.5 29.5-58.4 10.2-11.3 20.7-23 26.5-34.1 5.6-10.8 6.5-21.3 2.6-31.3 -5.6-14.3-21.1-27-42.5-34.8 -13.6-4.9-18.8-11.1-25.4-19 -7.7-9.1-17.2-20.4-43.1-35 -45.6-25.6-36.7-41.6-20.6-70.5l2.3-4.1c6.1-11.1 9.3-22 9.4-32.5 0-7.1-2-14-4-20.7 -1.8-6-3.6-12.1-3.9-18.3 -1.1-24.2 10.2-46.1 22.2-69.4 2.7-5.2 5.4-10.6 8.1-16h-2.2c-2.5 5.1-5.1 10.2-7.6 15.1C582.2 40 570.8 62.2 571.9 86.9z" class="a"/><path d="M973 1.2h-2.5c0.1 0.1 0.1 0.1 0.2 0.2h2.5C973.1 1.3 973 1.3 973 1.2z" class="a"/><path d="M993.6 105.6c-5.8-6.2-1-22.5-1-22.7 7.5-35.8-5.3-63.3-19.4-81.4h-2.5c14.2 17.8 27.6 45.2 20.1 81 -0.2 0.7-5.1 17.5 1.4 24.6 2.3 2.5 5.6 3.4 9.9 2.9v-2.1C998.3 108.3 995.4 107.6 993.6 105.6z" class="a"/><path d="M753.9 1.2h-4.1c-0.1 0.1-0.2 0.2-0.4 0.2h4C753.7 1.3 753.8 1.2 753.9 1.2z" class="a"/><path d="M797.4 1.2h-4.7c0.1 0.1 0.3 0.1 0.4 0.2h4.8C797.8 1.3 797.6 1.3 797.4 1.2z" class="a"/><path d="M709.5 43.9c-4 5.3-7.8 10.2-11.5 15 -18.2 22.5-11.7 53.6-6.3 70 2.7 8.3 7 18.3 16.2 22.2 2.7 1.2 5.6 1.8 8.6 1.8 13.7 0 26.1-11.9 30.8-17 7.6-8.3 24.4-20.6 39.7-20.6 7.4-0.1 14.4 3.3 18.9 9.1 1.3 1.6 2.6 3.3 4 5 14 17.7 31.5 39.6 57.3 39.6 5.6 0 11.2-1 16.5-2.8 27.2-9.1 25.5-32.9 23.4-63 -0.8-12-1.8-25.6-0.9-39.4 2.2-33.4-31.2-41.4-66.5-49.8 -14.4-3.4-29.1-7-41.7-12.4h-4.8c13.5 6.5 30.1 10.5 46.1 14.3 34.5 8.3 67 16.1 64.9 47.8 -0.9 14 0.1 27.7 0.9 39.7 2.1 29.3 3.7 52.5-22 61 -5.1 1.8-10.5 2.7-15.9 2.7 -24.8 0-42-21.5-55.7-38.9 -1.4-1.7-2.7-3.4-4-5 -4.9-6.3-12.5-10-20.4-9.9 -15.9 0-33.4 12.7-41.2 21.2 -3.5 3.8-16 16.3-29.3 16.3 -2.7 0-5.3-0.5-7.8-1.6 -8.4-3.6-12.4-13.1-15-21 -5.3-16.1-11.6-46.4 5.9-68.2 3.8-4.7 7.5-9.7 11.5-14.9 13.1-17.4 26.5-35.2 42.4-43.7h-4C734.6 10.6 721.9 27.4 709.5 43.9z" class="a"/><path d="M880.2 68.9c1.1-29-49.4-39.1-76.5-44.6 -2.9-0.6-5.9-1-8.9-1 -10.3 0-15.2 4.9-20.3 10.1 -5.9 6-12.7 12.7-29.1 14.7 -21.7 2.5-28.2 14-29.9 23.1 -1.2 6.9-0.6 14 0.1 20.2 1.6 14.7 9.5 21.4 16.1 21.4 3.5 0 6.8-1.8 9.4-4.9 2.9-3.6 14.1-15.3 34.1-15.3 7.1 0.1 14.1 1.5 20.7 4.2 10.1 4.1 18.9 11.6 27.4 18.9 12 10.3 23.3 20 37.7 20 1.6 0 3.3-0.1 4.9-0.4 20.4-3.1 18.2-22.5 15.9-43C880.8 84.4 879.9 76.3 880.2 68.9zM865.5 133.1c-1.5 0.2-3.1 0.4-4.6 0.4 -13.6 0-24.7-9.5-36.4-19.5 -8.6-7.4-17.5-15-28-19.2 -6.8-2.8-14.1-4.3-21.5-4.3 -14.1 0-27.5 6-35.7 16 -2.2 2.8-5 4.2-7.9 4.2 -5.7 0-12.6-6.1-14.1-19.6 -0.7-6.3-1.3-13-0.1-19.6 1.5-8.4 7.6-19 28.1-21.4 17.2-1.9 24.2-9 30.3-15.2h0c5.1-5.1 9.5-9.6 18.9-9.6 2.9 0 5.7 0.3 8.5 0.9 39.4 7.9 75.8 18.5 74.9 42.5 -0.3 7.6 0.6 15.7 1.5 23.6C882 112.7 884 130.3 865.5 133.1z" class="a"/><path d="M793.5 999.5c-6.4-3.3-13.5-5-20.7-5.2 -8.4 0-16 2.6-23.1 6.9 -0.9 0.6-1.8 1.1-2.7 1.8l-0.1 0.1c-0.4 0.3-0.7 0.5-1.1 0.8h3.5c1.5-1 3-1.9 4.5-2.6 5.8-3.2 12.4-4.9 19-4.9 6.9 0.1 13.6 1.8 19.8 4.9 1.9 0.9 3.9 1.8 6 2.7h5.6c-2.2-0.8-4.5-1.7-6.7-2.6C796.1 1000.7 794.8 1000.1 793.5 999.5z" class="a"/><path d="M886.9 1.2h-4.4c0.1 0.1 0.2 0.1 0.3 0.2h4.4C887.1 1.3 887 1.3 886.9 1.2z" class="a"/><path d="M988 173.1c-28.9-11.1-49.7-30.8-57.4-40.7 -17.4-22.3-6.9-50.7-6.8-51.1 14.2-40.9-7.1-64-36.5-79.9h-4.4c30.5 15.7 53.3 38.3 39.1 79.2 -0.1 0.3-11 29.8 7.1 53 7.9 10.1 29 30.1 58.3 41.4 4.8 1.9 9.7 3.4 14.7 4.6v-2.1C997.3 176.3 992.6 174.9 988 173.1z" class="a"/><path d="M537.6 1.4h-2.5c0 0 0 0 0 0.1h2.5C537.6 1.4 537.6 1.4 537.6 1.4z" class="a"/><path d="M716.4 1.1h-3.3c-0.1 0.1-0.3 0.2-0.4 0.3h3.3C716.1 1.3 716.2 1.2 716.4 1.1z" class="a"/><path d="M677.2 25.9c-0.3 0.2-29.4 23.8-22.4 59 1.7 8.6 2.5 17.9 3.3 26.9 2.5 28.4 4.8 55.2 33.3 62.9 32.3 8.8 50.7-3.1 65.6-12.6 2.5-1.6 4.8-3.1 7.2-4.5 8.8-5.2 23.4-5.3 36.4-0.4 13.1 5 22.4 14.2 26.2 25.9 3.4 10.5 13.6 18.3 28.8 22 20.6 5 45.1 1.2 54.8-8.5 4.1-4.2 7.9-8.8 11.3-13.6 8.5-11.7 14.2-19.4 28.6-11.1 2.8 1.6 6 3.7 9.7 6.1 10.5 6.8 24.8 16.2 42 22.2v-2.3c-16.7-5.9-30.8-15-41-21.7 -3.8-2.5-7-4.6-9.8-6.2 -16-9.1-22.7 0-31.2 11.7 -3.3 4.8-7 9.3-11 13.5 -9.2 9.2-33 12.8-53 8 -14.5-3.5-24.2-10.8-27.4-20.6 -3.9-12.2-13.6-21.9-27.4-27.1 -13.5-5.1-28.8-5-38.1 0.5 -2.4 1.4-4.8 2.9-7.3 4.5 -15.3 9.8-32.6 20.8-64 12.3 -27.2-7.4-29.4-33.5-31.9-61.1 -0.8-9-1.6-18.4-3.3-27.1 -6.6-33.4 20.4-56 21.6-57 1.6-1 21.1-13.1 37.6-26.1h-3.3c-16.5 12.6-35.1 24.2-35.4 24.4L677.2 25.9z" class="a"/><path d="M978.7 550.7c-1.8-5.3-3.1-10.8-4-16.3 -0.9-5.7-2.2-11.3-4.1-16.7 -2.4-6-7.8-13.6-15.2-15.5 -4.3-1.1-8.4 0-12.3 3.1 -11.3 9.3-18.4 20.6-25.3 32.3 -0.5 1-1 2.3-1.5 3.6s-1 2.5-1.5 3.4v0.1c-2.6 7.2-2.3 15.1-2.1 22.2 0.2 5.3-1.3 10.2-2.8 15.5 -1.2 3.7-2.1 7.6-2.7 11.5 -0.8 6.2 1.3 11.4 5.9 15 14.8 10.9 30.6 16.9 48.2 23.1l1.2 0.5c6.7 2.8 13.6 5.8 16.3 12.9 1.3 3.5 2.4 7.2 3.5 10.7 4.2 13.4 8.5 27.2 19.7 37.7v-2.9c-9.8-9.9-13.7-22.3-17.8-35.4 -1.1-3.5-2.2-7.2-3.5-10.8 -3-8-10.6-11.2-17.3-14.1l-1.2-0.5c-17.5-6.2-33.1-12.1-47.7-22.8 -5.1-4-5.6-9.3-5.2-13.1 0.6-3.8 1.5-7.5 2.6-11.2 1.5-5.2 3.1-10.6 2.9-16.1 -0.2-6.8-0.5-14.6 1.9-21.4 0.5-1 1-2.3 1.5-3.5 0.5-1.2 1-2.5 1.4-3.4 6.7-11.6 13.7-22.7 24.8-31.7 3.4-2.8 6.9-3.7 10.6-2.7 6.3 1.6 11.5 8.4 13.9 14.3 1.8 5.3 3.1 10.8 4 16.3 0.9 5.7 2.2 11.3 4.1 16.7 5.1 11.1 14.5 17 25.1 20.7v-2.1C992 566.6 983.4 561 978.7 550.7z" class="a"/><path d="M1002 743c-1.4-0.2-2.8-0.3-4.1-0.5 -12.2-1.9-30.4-8.2-47.5-28.1 -11.8-13.7-18.6-26-24-35.9 -8.1-14.8-13.9-25.4-30.3-28.3 -18.4-3.2-27.7-7.5-31.1-14.2 -2.6-5.1-1.7-11.9 2.7-20.7 7.7-15.5 4.5-25.4 0.8-36.9 -2.2-6.8-4.5-13.9-5-23.2 -0.8-15.2 7.2-21.8 18.3-30.9 6.9-5.7 14.8-12.2 22.2-22.2 8.4-11.3 10.2-22.2 5-30.6 -5.4-8.8-17.8-13.2-31-11 -25.6 4.3-66.2 40.7-67.5 80.3 -0.5 14.5 1.1 24.9 2.5 34.1 2.5 16.3 4.1 27-7.7 46.8 -11.3 18.9-30.2 33.2-46.9 45.7 -10.9 8.2-21.2 16-28.3 24.1 -15.3 17.6-52.5 45.1-83.3 23.2 -18.2-12.9-7-37.2 2-56.6 5.7-12.2 10.2-21.9 6.9-27.1 -7.2-11.5-8.2-30.4-3.2-65.3 5-34.9-25.2-56.6-53.8-74.3 -24.8-15.3-24-25.8-23.2-37.9 0.3-3.1 0.4-6.2 0.3-9.3 -0.7-17-9-26.7-24.1-44.4l-0.2-0.2c-3.5-4-7.3-7.6-11.4-10.9 -8.9-7.4-13.4-11.1-9.1-34.9 6.4-35.5-9-94.2-26.8-124.7 -18.7-32.1-12-52.8-2-70.3 10.5-18.4 16.4-47.5 7.4-67.6 -4.9-10.9-3.2-30.9-1-45.8 1.6-10.6 7.7-21 18.7-31.9 3.7-3.7 7.2-7.6 10.3-11.9h-2.5c-2.8 3.7-5.9 7.2-9.2 10.5 -11.3 11.2-17.6 22-19.3 33 -2.3 15.1-3.9 35.5 1.1 46.9 8.7 19.5 3 47.8-7.3 65.8 -10.3 18.1-17.2 39.4 2 72.3 17.8 30.1 32.9 89.3 26.8 123.3 -4.5 24.9 0.6 29.2 9.8 36.8 4 3.2 7.8 6.8 11.1 10.7l0.2 0.2c15.3 17.9 23 26.9 23.6 43.2 0.1 3 0 6.1-0.3 9.1 -0.9 12.2-1.7 23.8 24.1 39.7 34.9 21.5 57.2 42 52.9 72.3 -5.1 35.9-4.1 54.6 3.5 66.7 2.7 4.2-1.8 13.9-7 25.2 -9.3 20.1-20.9 45.2-1.4 59.1 13.6 9.7 30.1 11.1 47.8 4.2 19.3-7.5 33.2-21.9 38.2-27.7 7-8 17.2-15.7 28-23.8 16.9-12.7 36-27.1 47.4-46.3 12.1-20.4 10.4-32 7.9-48.1 -1.4-9.1-2.9-19.4-2.5-33.7 0.6-17.7 9.3-36.3 24.6-52.5 12.9-13.7 29.1-23.8 41.3-25.9 12.4-2.1 24 2 29 10.1 4.7 7.7 3 17.8-4.9 28.4 -7.3 9.8-15 16.2-21.9 21.9 -11.1 9.1-19.8 16.4-19 32.5 0.5 9.5 3 17.1 5.1 23.7 3.8 11.5 6.7 20.6-0.6 35.4 -4.7 9.4-5.6 16.8-2.7 22.5 4.7 9.2 19.1 12.9 32.5 15.3 15.5 2.7 20.8 12.5 28.9 27.3 5.5 10 12.3 22.4 24.2 36.3 17.6 20.3 36.2 26.9 48.8 28.8 1.4 0.2 2.8 0.4 4.2 0.6v-1.9L1002 743z" class="a"/><path d="M939.1 204.4c-2.3 0.5-4.5 1.3-6.6 2.4 -2.1 1-4 2.2-5.7 3.8 -0.5 0.4-0.9 0.9-1.3 1.3 -1.1 1.1-2.2 2.3-3.3 3.5 -3.6 3.9-7.3 7.9-12.1 9.8l-0.3 0.1c-5.5 0.9-11 1.3-16.5 1.4 -10.2 0.4-20.8 0.7-30.8 6.7 -0.4 0.3-0.8 0.5-1.2 0.8 -5 3.7-10.5 8.3-14 14.7 -1.2 2.3-2.3 4.6-3.2 7 -2.2 5.3-3.6 10.9-3.9 16.6 -0.2 3.3 0.3 6.6 1.4 9.7 0.9 3.2 2.5 6.1 4.6 8.7 6.8 7.4 17.4 9.8 26.7 11.5 8.4 1.1 16 2.2 23.6 3.7 11.2 2.3 21.1 8.6 30.7 14.8l4 2.6c14.4 9 30.8 14.5 47.7 15.9 5.4 0 10.7-0.1 15.9-0.2l7.3-0.1v-2.2l-7.4 0.1c-5.1 0.1-10.5 0.2-15.7 0.2 -16.6-1.4-32.6-6.7-46.7-15.6l-4-2.6c-9.8-6.3-19.9-12.7-31.4-15.1 -7.7-1.6-15.3-2.6-23.7-3.7 -9-1.6-19.2-4-25.6-10.9 -1.9-2.3-3.3-5.1-4.1-8 -1-2.8-1.4-5.9-1.3-8.9 0.3-5.5 1.6-10.9 3.8-15.9 0.9-2.3 2-4.6 3.1-6.8 3.3-6 8.6-10.4 13.4-14 0.4-0.3 0.7-0.5 1-0.7 9.5-5.7 19.4-6.1 29.8-6.4 5.7-0.1 11.3-0.5 16.9-1.4h0.1l0.5-0.2c5.3-2.1 9.1-6.2 12.9-10.3 1-1.1 2.1-2.3 3.2-3.4 0.4-0.4 0.9-0.8 1.3-1.2 1.6-1.4 3.4-2.5 5.3-3.4 1.9-1 4-1.7 6.1-2.2 21.6-4.4 42.5 4.4 62.7 13v-2.1C981.8 208.6 960.9 200 939.1 204.4z" class="a"/><path d="M2.2 139.4v2c0 0 0 0 0.1 0v-2C2.2 139.4 2.2 139.4 2.2 139.4z" class="a"/><path d="M276.8 1.3h-2c0 0.1 0 0.1 0 0.2h2C276.8 1.4 276.8 1.3 276.8 1.3z" class="a"/><path d="M24.5 142.9c20.6-0.7 40.3-7.3 58.4-19.5 40.1-26.9 59.6-25.1 86.7-22.6 11.2 1 23.8 2.2 39.5 1.3 20.3-1.2 37.6-10.5 49.9-27.1 14-18.8 20.2-45.2 17.9-73.6h-2c2.3 27.9-3.8 53.9-17.5 72.4 -11.9 16.1-28.6 25.2-48.4 26.3 -15.5 0.9-28.1-0.3-39.2-1.3 -26.4-2.4-47.3-4.3-88 22.9 -24.8 16.6-52.1 22.5-79.5 17.7v2C9.6 142.7 17 143.1 24.5 142.9z" class="a"/><path d="M2.2 315v2.2c0 0 0 0 0.1 0v-2.2C2.2 315 2.2 315 2.2 315z" class="a"/><path d="M2.2 834.9v2.6c0 0 0 0 0.1 0v-2.6C2.2 834.9 2.2 834.9 2.2 834.9z" class="a"/><path d="M207 1003.8c12.5-14.8 12.4-37.3 12.3-60.6 0-8.7-0.1-17.6 0.6-26.2 2.8-37.9 23.1-40.8 42.7-43.6l3.4-0.5c20.6-3.1 30.8-6.5 34.8-24.8 3.8-17.2 9-24.2 30.3-29.2 9.5-2.3 17.1-11.8 19.4-24.2s-0.6-29.8-16.1-40.4c-13-8.9-20.3-18.1-28.8-28.8s-18.1-22.7-35.5-37.5c-19.8-16.7-42.6-11.4-59.3-7.5 -9.1 2.1-16.9 3.9-20.9 1.3 -1.6-1.1-2.6-2.9-3.1-5.6 -1.5-8.7 7.3-20.4 23.5-31.3 19.6-13.2 42.8-20.3 50.6-15.5 6.2 3.8 14.3 5.5 22.9 7.2 13.6 2.8 27.6 5.7 35.9 17.2 14.5 20.2 48.8 39 74.6 33.6 22.9-4.8 45.9 3.3 77 27 18.2 13.8 60.1 19.3 93.3 12.2 15.5-3.3 35.9-10.8 45.1-27.7 19.7-36.2 1.4-68.2-8.5-85.4 -0.8-1.5-1.6-2.9-2.3-4.1 -4.9-8.8-1.7-19.2 1.7-30.2 2.7-8.8 5.5-17.8 4.4-26.8 -2-16.3-20.1-29.4-39.2-43.4 -4.9-3.5-9.9-7.2-14.8-11 -16.4-12.7-24.3-34.9-27.6-47 -1.5-5.5-3.8-12.4-8.9-17.7 -2.3-2.4-4.8-4.7-7.4-6.7 -3.1-2.3-6.4-4.4-9.8-6.3 -3.1-1.7-6.2-3.7-9.1-5.7 -10.8-8.1-17.1-19-19.3-33.5 -2.5-16.7-8.4-28.3-18.7-36.6 -8.3-6.8-18.2-9.9-27.8-12.9 -4.7-1.5-9.6-3-14.2-5 -11.4-4.6-21.1-12.7-27.6-23.1 -4.1-6.6-6.9-13.9-9.7-21 -3-7.8-6.1-15.8-10.9-23 -17.1-25.4-51.3-45.8-80.9-33.7 -26.6 10.9-55.7 13.7-83.7 16.4l-10.3 1c-12.7 1.2-25.7 2.5-38.5 4.7 -12.7 2.2-26.8 6.1-35.3 18.5 -7.2 10.6-8.7 23.6-9.6 36.1 -0.1 1.1-0.1 2.2-0.2 3.3 -0.2 4.4-0.4 9-2.6 12.6s-6.2 6.3-11.8 8.1c-4.8 1.5-9.6 1.6-14.5 1.8 -2.4 0.1-4.9 0.1-7.4 0.4 -18.6 1.8-32.4 0.2-46-5.3 -2.9-1.2-5.8-2.7-8.9-4.2 -2.7-1.4-5.5-2.8-8.3-4v2.2c2.5 1.1 5 2.4 7.4 3.6 3 1.5 6.1 3.1 9.1 4.3 13.8 5.5 28.2 7.2 46.9 5.4 2.4-0.2 4.9-0.3 7.3-0.4 4.9-0.1 10-0.3 15.1-1.9 6.1-1.9 10.4-4.9 12.9-9 2.5-4.1 2.7-8.9 2.9-13.6 0-1.1 0.1-2.2 0.2-3.3 0.9-12.2 2.3-24.9 9.2-35.1 8-11.7 21.7-15.5 34-17.6 12.7-2.2 25.7-3.5 38.3-4.7l10.3-1c28.2-2.7 57.4-5.5 84.3-16.5 28.6-11.7 61.8 8.3 78.5 33 4.7 7 7.8 14.9 10.7 22.6 2.8 7.2 5.6 14.6 9.8 21.3 6.8 10.8 16.8 19.1 28.5 23.9 4.7 2 9.6 3.5 14.4 5 9.8 3.1 19.1 6 27.1 12.5 9.9 8 15.6 19.2 17.9 35.4 2.2 15 8.8 26.4 20.1 34.8 3 2.1 6.1 4.1 9.3 5.9 3.3 1.8 6.5 3.9 9.6 6.1 2.6 2 5 4.2 7.2 6.5 4.7 4.9 6.9 11.6 8.4 16.9 3.4 12.3 11.5 35 28.3 48 4.9 3.8 10 7.5 14.9 11 18.8 13.7 36.6 26.6 38.4 42 1 8.5-1.7 17.4-4.3 25.9 -3.5 11.4-6.9 22.2-1.6 31.7 0.7 1.3 1.5 2.7 2.4 4.1 9.7 16.8 27.7 48.2 8.5 83.4 -8.9 16.3-28.7 23.5-43.8 26.8 -32.8 7-73.9 1.7-91.7-11.8 -31.6-24.1-55.2-32.2-78.6-27.3 -25.1 5.3-58.4-13.1-72.6-32.8 -8.8-12.2-23.8-15.3-37.2-18 -8.4-1.7-16.4-3.4-22.3-7 -9.7-6-34.4 3.3-52.7 15.6 -17.1 11.6-26 23.7-24.4 33.3 0.6 3.2 1.8 5.5 3.9 6.9 4.7 3.1 12.5 1.3 22.4-1 16.3-3.8 38.6-9 57.6 7.1 17.3 14.6 26.9 26.6 35.3 37.2 8.6 10.8 16 20.1 29.2 29.2 14.6 10 17.5 26.4 15.3 38.4 -2.2 11.7-9.2 20.6-17.9 22.6 -20.6 4.9-27.5 11.5-31.7 30.8 -3.8 17.1-13 20.2-33.2 23.2l-3.4 0.5c-19.5 2.8-41.5 5.9-44.4 45.4 -0.6 8.7-0.6 17.7-0.6 26.4 0.1 23 0.2 45.1-12.2 59.5l-0.4 0.5c-0.2 0.3-0.5 0.5-0.7 0.8h2.9c0 0 0 0 0 0L207 1003.8z" class="a"/><path d="M147.6 1001.1c-13.1-16.3-22.5-41.9-29.7-61.7 -3.4-9.3-6.3-17.3-9.1-23 -23.2-48-49.6-57-72.8-64.9 -11.8-4-23.3-8-33.7-16.5v2.6c10.3 8.1 21.5 11.9 33.1 15.8 24 8.3 48.9 16.8 71.7 64 2.7 5.6 5.6 13.6 9 22.9 7.4 20.2 17 46.4 30.6 62.9l0.1 0.2c0.2 0.2 0.3 0.4 0.5 0.6h2.7C149.1 1003 148.3 1002.1 147.6 1001.1z" class="a"/><path d="M461.8 1.3h-2.7c0 0 0.1 0.1 0.1 0.1h2.7C461.9 1.4 461.8 1.3 461.8 1.3z" class="a"/><path d="M19.4 255.1c5.6 0.8 10.8 1.5 22.5 0 24.4-3.2 36.9-7.2 50.1-11.4 12.6-4.2 25.5-7.7 38.6-10.3 21.3-4.4 41.6-6.3 58-7.9 15.6-1.5 27.9-2.7 35.4-5.3 7.6-2.6 14.7-5.8 21.7-8.9 6.4-2.8 13-5.7 19.6-8.1 36.3-13.1 70.5-9.1 91.4 10.7 7.8 7.4 14 17.1 19.5 30.5 1.6 3.8 2.9 7.7 4.3 11.5 2.2 6.8 4.9 13.4 8.1 19.7 8.5 16.2 21.5 29.5 36.6 37.4 7.8 4.1 16.3 6.5 25.1 7 5.5 0.4 11 1.3 16.3 2.8 2.1 0.5 4.2 1.1 6.4 1.8 7.7 2.3 15.7 4.7 23.4 3.3 13.6-2.5 13-20.2 12.9-26 -0.6-18-7.8-32.6-18.6-49 -12.8-19.5-19.5-36.2-21.9-54.3 -3-23.1 0.1-46.5 3.1-69.1 1.7-12.9 3.5-26.2 4.1-39.4 0.2-3.3 0.4-6.7 0.6-10.1 1.4-23.1 2.8-47.1-7.4-67.4 -1.9-4-4.4-7.7-7.3-11.1h-2.7c3.4 3.5 6.1 7.6 8.2 12 10 19.9 8.6 43.5 7.2 66.4 -0.2 3.4-0.4 6.8-0.6 10.1 -0.6 13.1-2.4 26.4-4.1 39.2 -3 22.8-6.2 46.3-3.1 69.7 2.4 18.4 9.3 35.4 22.2 55.1 10.9 16.6 17.7 30.4 18.3 48 0.3 9.4-0.6 22-11.2 23.9 -7.2 1.3-15-1-22.5-3.2 -2.3-0.7-4.4-1.3-6.5-1.8 -5.5-1.5-11.1-2.4-16.7-2.8 -8.5-0.5-16.8-2.8-24.3-6.7 -14.7-7.7-27.4-20.7-35.7-36.6 -3.1-6.3-5.8-12.8-7.9-19.5 -1.4-3.8-2.7-7.8-4.3-11.6 -5.6-13.7-11.9-23.6-19.9-31.2 -21.5-20.4-56.5-24.5-93.5-11.1 -6.7 2.4-13.3 5.4-19.7 8.2 -7 3.1-14.2 6.3-21.6 8.8 -7.3 2.6-19.5 3.7-35 5.2 -16.4 1.6-36.8 3.6-58.2 7.9 -13.1 2.7-26.1 6.2-38.8 10.4 -13.7 4.3-25.6 8.1-49.7 11.3 -11.4 1.5-16.5 0.8-22 0 -2.2-0.3-4.4-0.6-7.2-0.8 -3.6-0.2-7-0.6-10.3-0.9v2c3.2 0.4 6.6 0.7 10.1 0.9C15 254.5 17.2 254.9 19.4 255.1z" class="a"/><path d="M0.6 963.3l-0.6 2.3c0.8 0.9 1.5 1.8 2.2 2.7v-3C1.7 964.6 1.1 963.9 0.6 963.3z" class="a"/><path d="M21.2 1001.1c-0.7-2.2-1.4-4.4-2.2-6.5 -4-10.6-9.6-20.5-16.8-29.3v3c6.2 7.8 11.5 17.7 15 27.1 1.1 2.8 2 5.6 2.8 8.5h2.2c-0.3-0.9-0.5-1.9-0.8-2.8H21.2z" class="a"/><path d="M409.6 1.2h-3.9c-0.1 0.1-0.2 0.1-0.2 0.2h3.9C409.4 1.3 409.5 1.3 409.6 1.2z" class="a"/><path d="M81.5 164.9c0.4-0.3 38.2-31.1 73.3-20.9 45.6 13.3 84.3 5.1 115-24.2 17.9-17.1 31.4-11.5 45.7-5.6 14 5.8 28.4 11.8 47.2-3.3 18.8-15.1 19.6-35 20.4-54.2 0.8-20 1.6-38.9 21.5-52.2 1.6-1.1 3.2-2 4.7-3h-3.9c-0.7 0.4-1.4 0.9-2 1.3C382.7 16.6 381.8 36.9 381 56.5c-0.8 18.8-1.6 38.3-19.7 52.8 -17.9 14.3-31.2 8.8-45.2 3 -14.3-5.9-29-12-47.9 6 -30.1 28.9-68.1 36.9-113 23.8 -36.1-10.5-74.7 20.9-75 21.2C52.1 182.7 24 182.8 2.2 177.5v2.1C24.4 185 52.8 184.7 81.5 164.9z" class="a"/><path d="M2.2 216.9v2.2c0 0 0.1 0 0.1 0v-2.2L2.2 216.9z" class="a"/><polygon points="2.2 198 2.2 200.1 2.2 200.1 2.2 198 " class="a"/><path d="M25.5 227.8c1.6 0.2 3.2 0.7 4.7 1.3l0.1 0.1c0.8 0.2 20 5.8 50.5-9.5 27.7-13.9 54.4-20.1 77.1-18 20.4 1.9 45.9 4.2 83-15.4s77.5-22.4 102.9-7.2c22.9 13.8 44.6 38 62.5 70.1 12.4 22.1 34.9 41 55 41 4.5 0 9-1 13-3 3.7-1.8 5.8-4.1 6.5-6.8 1.4-5.7-3.5-12.8-10.4-22.5 -7.9-11.2-18.7-26.5-23.7-46.6 -7.3-29-4.5-66.9-1.9-100.2 2.9-38.1 5.4-71.1-7.4-82.7 -7.8-7-13.8-9.3-18.4-7 -13.3 6.7-8.6 51.8-4.4 91.5 1.2 11 2.2 21.3 2.8 29.6 1.5 23.4-0.8 35.9-7.6 40.4 -5.9 3.9-15.8 2-32.1-6.1 -2.5-1.2-5.1-2.6-7.9-4 -33.2-16.9-78.7-40-106.4-18 -30 24-88.4 34.8-116.7 27.7 -29.4-7.3-67 8.3-67.4 8.5l-0.1 0.1c-28.7 16.5-55.2 14.5-77.1 6.8v2.1c22.2 7.6 49 9.5 78-7.2 1.7-0.7 37.9-15.4 66.1-8.4 28.7 7.2 88-3.7 118.4-28.1 26.6-21.3 71.5 1.5 104.2 18.2 2.7 1.4 5.4 2.7 7.9 4 17.2 8.6 27.4 10.4 34.1 6 7.5-4.9 10.1-18 8.5-42.2 -0.5-8.4-1.6-18.7-2.8-29.7 -3.7-35.2-8.7-83.4 3.3-89.5 3.7-1.9 9.1 0.4 16.1 6.7 12.2 11 9.7 43.5 6.8 81.1 -2.6 33.5-5.5 71.5 2 100.9 5.2 20.4 16.1 35.9 24 47.3 6.3 9 11.3 16 10.1 20.9 -0.5 2.1-2.3 4-5.5 5.5 -9.5 4.8-21.7 3.2-34.4-4.3 -12-7.2-23.3-19.2-31-32.9 -18.4-32.9-39.7-56.7-63.2-70.9 -25.9-15.5-67.1-12.8-104.8 7.1 -36.6 19.3-61.7 17-81.9 15.1 -23.1-2.1-50.2 4.2-78.2 18.2 -28.9 14.4-47.8 9.7-49 9.4 -1.6-0.7-3.3-1.2-5.1-1.4 -1.2-0.2-2.5-0.5-3.7-0.9 -6.4-2.3-12.9-5-19.3-7.7l-0.7-0.3v2.2c6.3 2.7 12.8 5.4 19.3 7.7C22.8 227.3 24.2 227.6 25.5 227.8z" class="a"/><path d="M2.1 570.1v2c0 0 0.1 0 0.1 0v-2C2.2 570.1 2.2 570.1 2.1 570.1z" class="a"/><path d="M35.6 579.9c11.6 3.6 21.1 9.5 28.9 14.8 10.8 7.4 22.5 14.7 35.8 17.3 7.1 1.3 15 1.7 24.8 1 9.5-1.1 18.8-3.8 27.7-6.4 7.3-2.3 14.8-4.1 22.3-5.6 12.8-2 25.9 1.1 38.7 4 5.7 1 11.6 1 17.3 0 1.9-0.3 3.7-0.5 5.5-0.7 4-0.3 8-1.1 11.8-2.3l3.6-1.6c7.5-3.4 14.7-6.6 23.1-8.3 9.5-1.4 18.6 1.2 27.9 8.2 12.1 9.1 23.4 15.2 34.7 18.8 1 0.3 2 0.6 2.9 0.9 10.4 4.2 16.8 14.8 19.4 23.3l0.1 0.2c3 6 6.1 12.2 11.2 16.3 12.9 11.1 29 10 40 8.2 1.7-0.3 3.4-0.7 5-1.1 5-1.2 9.7-2.3 13.9-0.2 7 3.5 13.8 7.6 20.2 12.1 33 21.2 64.2 27 92.8 17.1l2-0.5c3.9-0.8 7.6-2 11.2-3.6l18.2-12.1c18.7-15 12.9-34.8 7.3-54 -2-7-4.1-14.1-4.9-20.9 -1.1-6.6-0.7-13.6-0.2-20.4 0.5-5.5 0.6-11 0.2-16.5 -2-26.3-28.7-36.9-53-37.9 -7 0-14.1 0.3-21 0.7 -13.7 0.7-27.9 1.3-41.8-0.7 -8.4-0.9-16.7-2.9-24.7-5.9l-3.6-2c-5.5-3.1-10.3-5.7-15.1-9.8 -3.4-3.9-6.7-7.7-9.9-11.8l-2.3-2.9c-7.5-9.4-15.2-19.2-25.3-26.1 -2.7-1.8-5.5-3.6-8.3-5.4 -11-7-21.4-13.5-27.1-24.6 -0.4-1-0.7-2.1-0.9-3.1l-0.1-0.7c-0.3-1.1-0.8-2.2-1.4-3.2 -0.2-0.3-0.4-0.6-0.5-0.9 -1.1-2-2.4-4-3.8-5.9 -8.4-11.3-20.2-17.6-31.8-16.7 -1.6 0.1-3.2 0.5-4.7 1.1 -6.9 3.4-11.2 11-12.5 21.7 -0.8 4-2.2 7.9-4.1 11.6 -0.9 2-2.4 3.7-4.2 5 -2 1.2-4.2 2-6.4 2.5 -10.9 2.7-21.6 5.3-32.4 7.1 -20.3 2.8-37-9.1-53.2-20.6l-3.1-2.2c-3.3-3.2-6.9-6.2-10.5-9l-2.4-1.9c-14.5-12.9-27.1-27.1-40.4-42.2 -3.1-3.5-6.3-7.1-9.4-10.6 -2.9-3.8-7.7-7.9-13.4-11.3 -3-1.5-5.9-3.2-8.7-4.8 -4.6-2.8-9.4-5.2-14.4-7.2 -13.3-5.2-27.1-8.9-41.2-11 -3-0.5-6.4-0.8-9.6-1 -3.2-0.2-6.5-0.5-9.4-1H26c-8.1-0.5-15.9-0.5-23.7-0.4v2c7.9-0.1 15.5-0.1 23.6 0.4 3 0.5 6.3 0.8 9.5 1s6.5 0.5 9.4 1c14 2.1 27.6 5.8 40.8 11 4.9 2 9.6 4.4 14.1 7.1 2.8 1.6 5.8 3.3 8.8 4.8 5.4 3.2 10 7.1 12.8 10.8 3.2 3.6 6.4 7.2 9.5 10.7 13.4 15.1 26 29.4 40.6 42.4l2.5 2c3.6 2.8 7.1 5.8 10.4 8.9l0.1 0.1 3.1 2.2c16.5 11.7 33.5 23.8 54.6 21 10.9-1.8 21.6-4.4 32.6-7.1 2.5-0.5 4.8-1.5 7-2.7 2.1-1.5 3.8-3.5 4.9-5.8 2-3.9 3.5-8 4.3-12.3 0.9-7.1 3.6-16.3 11.4-20.2 1.3-0.6 2.7-0.9 4.1-1 10.9-0.8 22.1 5.2 30 15.9 1.3 1.8 2.6 3.7 3.6 5.7 0.2 0.3 0.4 0.7 0.6 1 0.5 0.8 0.9 1.6 1.2 2.5l0.1 0.7c0.2 1.3 0.5 2.5 1.1 3.7 6 11.6 17 18.6 27.8 25.4 2.7 1.7 5.5 3.5 8.2 5.3 9.9 6.7 17.5 16.4 24.9 25.7l2.3 2.9c3.3 4.1 6.6 8 10 11.9l0.1 0.1c5 4.2 10.1 7 15.5 10l3.7 2.1 0.1 0.1c8.1 3.1 16.6 5.1 25.2 6.1 14.1 2 28.4 1.3 42.2 0.7 6.9-0.3 14-0.7 20.9-0.7 23.4 1 49.1 11 51 36.1 0.3 5.4 0.2 10.8-0.2 16.2 -0.4 6.9-0.9 14.1 0.3 20.8 0.8 6.9 3 14.2 5 21.2 5.7 19.4 11 37.8-6.6 51.9l-17.9 12c-3.4 1.5-7 2.7-10.7 3.4l-2.1 0.5c-28 9.6-58.7 4-91.1-16.9 -6.5-4.6-13.3-8.7-20.4-12.2 -4.8-2.4-10.1-1.2-15.2 0 -1.6 0.4-3.3 0.8-4.9 1 -16.8 2.7-29 0.3-38.4-7.8 -4.8-3.9-7.8-9.8-10.7-15.6 -2.7-9-9.5-20.1-20.6-24.6h-0.1c-1-0.3-1.9-0.6-2.9-0.9 -11-3.5-22.2-9.6-34.1-18.5 -9.8-7.3-19.4-10.1-29.4-8.6 -8.8 1.8-16 5-23.6 8.5l-3.5 1.6c-3.7 1.1-7.5 1.9-11.3 2.2 -1.8 0.2-3.6 0.4-5.5 0.8 -5.5 1-11.1 1-16.6 0 -12.9-3-26.2-6-39.4-4 -7.6 1.5-15.1 3.4-22.5 5.6 -8.9 2.6-18.1 5.2-27.4 6.3 -9.6 0.6-17.3 0.3-24.2-1 -13-2.4-24.4-9.7-35-16.9 -7.9-5.3-17.5-11.3-29.4-15 -3.7-0.9-7.5-1.6-11.5-2.4 -7.6-1.5-15.3-3-22.3-5.5v2c7.1 2.4 14.7 4 21.9 5.3C28.2 578.3 32 579.1 35.6 579.9z" class="a"/><path d="M2.1 691v2.8l0.1 0.1c0 0 0.1 0 0.1 0.1v-2.8C2.2 691.1 2.1 691 2.1 691z" class="a"/><polygon points="2 743 2 745 2.2 745 2.2 743 " class="a"/><path d="M17.4 747.1c2.8 0.6 5.8 1.3 8.6 2.2 1.9 0.6 3.7 1.4 5.4 2.3 1.1 0.6 2.3 1.1 3.5 1.6 3 1.2 5.9 2.6 8.7 4.3l0.7 0.5c4.3 2.7 8.3 5.2 11.8 8.7 8.9 10.3 10.1 22.5 11.4 35.5 0.5 5.7 1.2 11.4 2.3 17 1 8.1 5.1 15.5 11.4 20.7 4.5 3.6 9.2 6.8 13.7 10 9.7 6.8 18.8 13.2 26.1 21.9 1.2 1.5 2.2 2.7 3.2 3.9 2.5 2.8 4.7 5.8 6.7 9 1.3 2.2 2.4 4.5 3.4 6.9 1 2.4 2.2 4.7 3.5 7 1.9 3.9 3.6 8 5.4 12.4 7 16.8 14.3 34.1 30 41.6 4.3 2.1 10.5 2.9 14.9-0.9 4.1-3.6 6.6-9.6 7.6-18.4v-0.1c0-4-0.2-8.1-0.4-12.1 -0.4-7.8-0.9-15.9 0.4-23.7 2.1-9.2 4-16.9 8.8-24.6 3-4.2 6.3-8.1 9.9-11.9 7.3-5.6 15.7-8 24.4-10.2 13-3.3 27.1-8.3 32.8-20.6 0.4-0.9 0.8-1.8 1.2-2.7 2.2-4.9 4.3-9.5 7.7-13.5 3.4-3.5 7.1-6.7 11.1-9.5 5.4-4 10.5-7.7 14-13.7 6.3-12.6 3.2-30.2-7.3-41.9 -5.4-6-13.6-7.3-21.5-8.6 -3.2-0.4-6.3-1.1-9.4-1.8 -5.9-1.6-10.1-4.8-12.7-9.5 -0.4-0.7-0.7-1.5-1-2.3 -2.1-6.1-4.6-13.7-11.3-16.5 -5.2-2.2-11.4-1.8-18.8 1.3 -7.8 3.3-14.3 8.9-20.6 14.3 -3.7 3.3-7.6 6.4-11.6 9.3 -32.8 22.4-76.6 14.2-104.2 0.5 -5.5-2.9-10.8-6.2-16-9.3 -12.7-7.8-25.8-15.9-42.3-18.7 -2.7-0.8-5.4-1.9-7.8-3.4 -0.9-0.5-1.9-1-2.9-1.5 -5.2-2.9-10.1-6.2-14.8-9.9 -0.4-0.4-0.8-0.8-1.2-1.2v2.8c4.8 3.7 9.8 7.1 15.1 10.1 1 0.5 2 1 2.9 1.5 2.6 1.5 5.4 2.7 8.4 3.6 16.1 2.8 29.1 10.8 41.6 18.5 5.2 3.2 10.5 6.5 16.1 9.4 16.8 8.4 35.1 13 53.9 13.6 20 0.5 38.1-4.4 52.4-14.2 4.1-2.9 8.1-6.1 11.8-9.4 6.2-5.3 12.5-10.8 20.1-13.9 6.9-2.9 12.5-3.3 17.2-1.3 5.8 2.5 8.1 9.3 10.2 15.3 0.3 0.9 0.7 1.8 1.1 2.6 2.9 5.3 7.6 8.8 14 10.6 3.2 0.8 6.4 1.4 9.6 1.9 7.9 1.3 15.4 2.5 20.4 8 10 11.1 12.9 27.8 7 39.6 -3.3 5.6-8.3 9.2-13.5 13.1 -4.1 2.9-8 6.1-11.4 9.8 -3.6 4.2-5.8 9.2-8 14 -0.4 0.9-0.8 1.8-1.2 2.7 -5.3 11.6-18.9 16.4-31.5 19.5 -8.9 2.2-17.5 4.7-25.1 10.6l-0.1 0.1c-3.7 3.8-7.1 7.9-10.1 12.2 -5 8.1-7 15.9-9.1 25.4 -1.3 8.1-0.9 16.3-0.5 24.2 0.2 3.9 0.4 7.9 0.4 11.9 -0.9 8.2-3.2 13.8-6.9 17 -3.7 3.2-9 2.4-12.7 0.6 -15-7.2-22.1-24.2-29-40.6 -1.8-4.4-3.6-8.5-5.5-12.5 -1.3-2.2-2.4-4.5-3.4-6.9 -1-2.4-2.2-4.8-3.6-7.1 -2-3.3-4.3-6.3-6.9-9.2 -1-1.2-2.1-2.5-3.2-3.9 -7.5-8.9-16.8-15.4-26.5-22.2 -4.5-3.1-9.1-6.4-13.6-9.9 -5.9-4.9-9.7-11.8-10.7-19.4 -1.1-5.6-1.8-11.2-2.3-16.8 -1.3-13.3-2.6-25.9-12-36.7 -3.7-3.7-7.8-6.3-12.2-9l-0.7-0.5c-2.9-1.7-5.9-3.2-9-4.4 -1.1-0.5-2.2-1-3.3-1.6 -1.8-1-3.8-1.8-5.7-2.5 -2.9-0.9-6-1.6-8.8-2.2 -4-0.9-8.1-1.3-12.1-1.8l-3.2-0.4v2l3 0.3C9.4 745.8 13.5 746.2 17.4 747.1z" class="a"/><path d="M209 1.3h-2.6c0 0-0.1 0.1-0.1 0.1h2.6C209 1.4 209 1.3 209 1.3z" class="a"/><path d="M147.6 1.3h-2.6c0 0 0.1 0.1 0.1 0.1h2.6C147.7 1.4 147.6 1.3 147.6 1.3z" class="a"/><path d="M175.1 19.3c3.1 0 6.2-0.5 9.1-1.4 11.7-3.5 19.5-9.2 24.7-16.5h-2.6c-5 6.4-12.2 11.5-22.7 14.6 -14.4 4.3-26.2-2.6-35.9-14.6h-2.6C153.5 12.1 163.3 19.3 175.1 19.3z" class="a"/><path d="M239.5 1.3h-2c0 0 0 0.1 0 0.1h2C239.5 1.4 239.5 1.3 239.5 1.3z" class="a"/><path d="M108.1 1.3h-2.2c0 0 0 0.1 0.1 0.1h2.2C108.2 1.4 108.2 1.3 108.1 1.3z" class="a"/><path d="M176.5 78.6c11.2 3.8 21.1 2.7 28.7-3.4 25.8-20.6 32.9-52 34.4-73.9h-2c-1.5 21.5-8.5 52.2-33.6 72.4 -7 5.6-16.2 6.6-26.8 3 -22.2-7.6-50.1-35.9-68.9-75.4h-2.2C125.1 41.8 153.7 70.9 176.5 78.6z" class="a"/><path d="M567 1.2h-2.2c0 0.1 0 0.1-0.1 0.2h2.2C566.9 1.3 567 1.3 567 1.2z" class="a"/><path d="M687.4 1.3h-3c-0.1 0.1-0.1 0.1-0.2 0.2h3C687.3 1.3 687.3 1.3 687.4 1.3z" class="a"/><path d="M551.3 87.6L552.5 91c9.3 25.2 13.9 37.9 0.4 50.2 -7.2 6.6-42.2 41.6-20.9 85.8 11.8 24.3 29.4 28 44.9 31.3 9.7 2 18.8 3.9 26 10.4 4.2 3.7 9.9 7.9 15.9 12.3 22.8 16.6 51.2 37.3 40.5 63.3 -5.6 13.5-14.6 26-23.4 38 -13.2 18.1-25.6 35.2-24 53.1 3 32.6 19.3 58.5 45.9 72.8 20.1 10.8 21.9 35.8 23.7 59.9 2.1 28.7 4.3 58.3 37.3 63.5l2.2 0.4c14.1 2.4 43.4 7.3 59.5-25.6 4.2-8.6 4.4-18.3 4.8-35.9 0.1-6.1 0.3-13 0.6-21.2 1.3-30.4 4-50.3 30.9-71.2 1.3-0.9 32.4-21.9 37.1-50 2.1-12.5 6.5-20.3 10.5-27.1 4.9-8.5 9-15.8 7.6-29.2 -2.6-22.9-38-32.1-61.5-38.2l-5.2-1.4c-11.1-2.9-21.6-12.5-27.5-25.1 -5.2-11.1-5.9-22.3-1.9-30.8l1.7-3.7c9.9-21 28.3-60 12.8-78 -16.5-19.3-44.1-7.8-68.5 2.4 -25.1 10.4-57 12.9-71.4-11.6 -8.4-14.2-6.9-23.8-5.2-34 1.3-8 2.6-16.2-1.3-26.5C625.3 75.4 632.8 39.7 666.1 18.7c0.2-0.2 9.2-6.8 21.1-17.3h-3c-10.9 9.6-19 15.6-19.2 15.7 -34.2 21.5-42 58-23.1 108.5 3.7 9.9 2.5 17.5 1.2 25.5 -1.6 10.1-3.2 20.5 5.5 35.3 15.1 25.6 48.1 23.2 73.9 12.4 23.7-9.9 50.6-21.1 66.2-2.9 14.6 17.1-3.4 55.3-13.1 75.9l-1.7 3.7c-4.2 9.1-3.5 20.9 1.9 32.5 6.1 13.1 17.2 23.1 28.8 26.2l5.2 1.4c23 5.9 57.6 14.9 60 36.4 1.4 12.8-2.6 19.8-7.3 28 -4 7-8.5 14.9-10.7 27.8 -4.5 27.2-35.9 48.5-36.3 48.7 -27.6 21.4-30.4 41.8-31.7 72.8 -0.3 8.2-0.5 15.1-0.6 21.2 -0.4 17.3-0.6 26.9-4.6 35 -15.4 31.5-43.8 26.8-57.4 24.5l-2.2-0.4c-31.5-5-33.5-32.5-35.6-61.7 -1.8-24.7-3.7-50.2-24.7-61.5 -26-14-41.9-39.2-44.8-71.2 -1.6-17.2 10.7-34 23.6-51.7 8.9-12.1 18-24.7 23.7-38.4 11.3-27.5-19-49.5-41.2-65.6 -6-4.4-11.7-8.5-15.8-12.2 -7.6-6.8-17-8.8-26.9-10.9 -15.8-3.3-32.2-6.7-43.5-30.2 -20.7-42.9 13.4-77.1 20.4-83.5 14.6-13.2 9.4-27.1 0.2-52.4l-1.2-3.4c-9.8-26.7-0.1-55 0-55.2 0.1-0.2 4.6-10.3 13.8-30.3h-2.2c-8.9 19.4-13.3 29.3-13.4 29.5C551.2 31.1 541.3 60.3 551.3 87.6z" class="a"/><path d="M911.7 1.2h-3.2c0.1 0.1 0.1 0.1 0.2 0.2h3.2C911.9 1.3 911.8 1.3 911.7 1.2z" class="a"/><path d="M954.6 119.7c-19.7-13.2-17.3-28.5-11.8-39 1-1.8 2.2-3.7 3.3-5.4 2.5-3.9 5.1-7.9 5.8-12.6 3.3-21.5-18.9-44.5-40.1-61.3h-3.2c21.5 16.6 44.7 39.8 41.4 61 -0.7 4.3-3 7.9-5.5 11.8 -1.2 1.8-2.4 3.7-3.4 5.6 -4.8 9.2-9.6 26.8 12.4 41.6 14.6 9.9 31.1 16.6 48.5 19.6v-2C985.7 136.1 969.5 129.7 954.6 119.7z" class="a"/><path d="M21.4 1.1l-2.1-0.1c0 0.1 0.1 0.3 0.1 0.4h2.1C21.5 1.3 21.4 1.2 21.4 1.1z" class="a"/><path d="M2.2 107.9v2c0 0 0 0 0 0v-2C2.2 107.8 2.2 107.8 2.2 107.9z" class="a"/><path d="M18.4 80.6c0.4-9 2.6-17.6 4.8-25.7 4.8-17.2 4.5-32.8-1.7-53.5h-2.1c6 19.9 6.4 36.5 2 52.5 -2.3 8.6-4.7 17.3-5.1 26.6 -0.5 13.2-1 24.6-12.6 27.1 -0.5 0.1-1 0.2-1.5 0.3v2c0.7-0.1 1.3-0.2 2-0.3C17.4 106.7 17.9 94 18.4 80.6z" class="a"/><path d="M56.9 1.3h-2c0 0.1 0 0.1 0 0.2h2C56.9 1.4 56.9 1.3 56.9 1.3z" class="a"/><path d="M88.5 1.3h-2c0 0.1 0 0.1 0 0.2h2C88.5 1.4 88.5 1.3 88.5 1.3z" class="a"/><path d="M62.1 37.8C60.5 48.5 56.7 52.2 53.3 55.4c-2.7 2.7-5.4 5.2-5.5 11.1 -0.1 3.2 1.5 6.6 4.5 9.6 4.8 4.8 11.2 7.4 17.9 7.5 5.7 0 14-2 21.1-11.7 7.9-10.9 5-41.5-2.8-70.4H86.5c7.8 28.6 10.8 58.8 3.2 69.3 -6.5 9-14.2 10.9-19.4 10.9 -6.2 0-12.1-2.5-16.5-6.8 -2.6-2.6-3.9-5.5-3.9-8.2 0.1-5 2.1-7 4.9-9.7 3.4-3.3 7.6-7.4 9.4-18.8 1-6.5-1-12.9-3.1-19.7C59 12.9 57.7 7.2 56.9 1.4h-2c0.8 6 2.2 11.9 4.2 17.6C61.2 25.8 63.1 31.7 62.1 37.8z" class="a"/><path d="M385.1 986.9c3.9-0.8 8-1.5 12-2.1 22.8-3.8 46.4-7.7 42.8-29 -4.3-25.7-27.6-45.8-53-45.8 -17.7 0.3-35.2 3.4-51.9 9.1 -26.9 9.5-43.5 24.9-49.1 45.7 -2.5 9.3 0.6 15.6 4.4 23.5 2.1 4.2 4 8.5 5.5 13 0.3 0.9 0.6 1.7 0.8 2.7h2.1c0-0.1-0.1-0.3-0.1-0.4l-0.1-0.5c-0.2-0.6-0.4-1.2-0.5-1.8 -1.6-4.8-3.6-9.4-5.9-13.9 -3.8-7.9-6.6-13.6-4.3-22.1 5.4-20.1 21.5-35 47.8-44.3 16.5-5.6 33.8-8.6 51.2-8.9 24.5 0 46.9 19.4 51 44.2 3.2 19.3-19.3 23.1-41.2 26.7 -4 0.7-8.1 1.4-12 2.1 -8.3 1.7-13.1 8-16.4 16.3h0c-0.3 0.7-0.5 1.3-0.8 2l-0.1 0.1c-0.1 0.2-0.1 0.3-0.2 0.5h2.1c0.3-0.9 0.7-1.8 1-2.6C373.7 993.8 378 988.4 385.1 986.9z" class="a"/><path d="M377.5 926c-1.2-0.1-2.5-0.1-3.8-0.1 -33 0-54.8 25.2-55.1 25.5 -7.3 9.7-6 17.3-3.7 22.1 4.3 8.6 16.1 14.8 28.1 14.8 8 0 14.5-2.7 18.5-7.6 7.6-9.3 23.1-13.6 35.6-16.9 11.9-3.2 21.2-5.8 21.7-11.6 0.4-4.9-1.2-9.8-4.4-13.4C408.1 931.2 395.6 927 377.5 926zM416.9 951.9c-0.4 4.4-9.6 6.9-20.2 9.8 -12.7 3.4-28.6 7.7-36.6 17.6 -3.6 4.4-9.6 6.9-17 6.9 -11.3 0-22.4-5.7-26.3-13.7 -3-6-1.8-13 3.5-19.9 0.2-0.2 21.5-24.7 53.5-24.7 1.2 0 2.4 0 3.6 0.1 17.4 1 29.7 5.1 35.6 12C415.9 943.2 417.3 947.5 416.9 951.9z" class="a"/><path d="M370.5 1.3h-2.2c0 0 0 0.1 0 0.1h2.2C370.5 1.4 370.5 1.3 370.5 1.3z" class="a"/><path d="M298 1.3h-2.1c0 0 0 0.1 0 0.1h2.1C298 1.4 298 1.3 298 1.3z" class="a"/><path d="M297.9 47.8c-1.3 8-0.3 13.9 2.8 17.6 2.5 3 6.4 4.5 11.5 4.5 8.5 0 20.6-4.4 33.2-12 11.3-6.9 15.3-22.3 19.1-37.1 1.8-7 3.5-13.6 6-19.3h-2.2c-2.3 6.1-4.2 12.4-5.7 18.8 -3.7 14.5-7.6 29.5-18.2 35.9 -12.3 7.5-24 11.8-32.1 11.8 -4.5 0-7.8-1.3-10-3.8 -2.8-3.2-3.6-8.6-2.4-16 3.5-22 1.5-36.3-1.8-46.7h-2.1C299.3 11.7 301.4 25.8 297.9 47.8z" class="a"/><path d="M988.3 617.6h0c-1.7-1-3.4-2-5-3 -1.2-0.7-2.6-1.6-4.2-2.5 -11.3-6.8-32.4-19.5-33-28.2 -0.1-1.8 0.7-3.4 2.2-4.4 2.5-2.2 5.7-3.4 9-3.4 8 0 14.7 7.1 14.8 7.3 8.6 8.2 14.7 13.3 30 16.5v-2c-14.4-3.1-20.1-7.9-28.5-16 -0.3-0.3-7.3-7.9-16.2-7.9 -3.8 0-7.4 1.4-10.2 3.9 -2 1.4-3 3.7-2.9 6.1 0.7 9.8 21.6 22.3 34 29.8 1.6 0.9 3 1.8 4.1 2.5 1.6 1 3.3 2 5 3 5.2 2.8 10.1 6.1 14.8 9.8v-2.4C997.7 623.3 993.1 620.3 988.3 617.6z" class="a"/><path d="M989.1 288.4v0l-2.5-0.7c-14.8-3.8-35.1-9.1-39.3-17.1 -0.9-1.7-1-3.7-0.3-5.5 1.5-4.1 5.3-6 11.6-6 8.1 0 19.2 3.2 29.9 6.4 2.2 0.6 4.3 1.3 6.5 1.9 2.4 0.7 4.8 1.2 7.3 1.7v-2c-2.3-0.5-4.6-1-6.8-1.7 -2.1-0.6-4.3-1.2-6.4-1.9 -10.8-3.2-22-6.4-30.4-6.4 -7.2 0-11.6 2.4-13.4 7.4 -0.9 2.3-0.7 4.9 0.4 7.1 4.6 8.8 24.5 13.9 40.5 18.1l2.5 0.7c4.6 1.3 9.2 2.9 13.6 4.8v-2.1C997.8 291.2 993.5 289.6 989.1 288.4z" class="a"/><path d="M542.5 959.6c-9.6-15.5-33-18.3-55.6-20.9 -25-2.9-48.5-5.7-55.3-23.9 -6.7-17.8-15.7-28.7-27.6-33.4 -14.5-5.7-33.9-2.3-59.2 10.3 -9.6 4.8-18.7 8.5-27.5 12.1 -34.1 14-58.7 24.2-46.6 74.5 1.8 7.6 3.1 15.2 3.7 23 0.1 0.8 0.1 1.7 0.2 2.5h2.3c-0.1-0.9-0.1-1.7-0.2-2.6 -0.7-7.9-1.9-15.7-3.8-23.4 -11.8-48.7 10.9-58 45.4-72.2 8.8-3.6 18-7.4 27.6-12.2 24.8-12.4 43.6-15.7 57.6-10.3 11.4 4.5 20 15 26.5 32.2 7.2 19.3 32.5 22.3 57 25.2 22.1 2.6 45 5.3 54.1 20 8.7 14.1 3.2 28.7-5.8 40.7 -0.7 0.9-1.4 1.8-2.1 2.6h2.4C545.5 991.2 552.1 975.2 542.5 959.6z" class="a"/><path d="M890.1 1002.8l-0.6-0.3c-15.1-8.4-32.5-14.9-48.6-20.9 -15.8-5.8-30.7-11.3-40.4-17.7 -34.7-22.8-50.3-2.7-62.8 13.4 -1.6 2-3 3.9-4.5 5.7 -4.5 5.4-12 11.9-20 18.1l-1.5 1.2 -0.1 0.1 -1.4 1.1 -0.1 0.1 -0.5 0.4h3.4c0.7-0.5 1.4-1.1 2.1-1.6l0.1-0.1c7.9-6.1 15.2-12.5 19.7-17.9 1.5-1.8 3-3.7 4.6-5.8 12.7-16.3 27-34.8 60.1-13 9.9 6.5 24.9 12.1 40.8 17.9 13.9 5.2 28.9 10.7 42.4 17.6 1.9 1 3.7 1.9 5.5 2.9h3.6L890.1 1002.8z" class="a"/><path d="M445.9 991.2c-11.9-3.1-26.1 0.7-42.4 11.6 -0.5 0.4-1.1 0.7-1.6 1.1h3.5c0.6-0.4 1.1-0.7 1.7-1.1 0.8-0.5 1.6-1 2.4-1.5 13.6-8.1 25.6-10.8 35.7-8.2 5.2 1.4 10 4.3 13.7 8.2l0.7 0.7 0.5 0.5c0.4 0.4 0.7 0.8 1 1.2l0.1 0.2h2.6c-0.7-0.9-1.4-1.7-2.1-2.6C457.7 996.4 452.1 992.9 445.9 991.2z" class="a"/><path d="M2.1 874.9v2c0 0 0.1 0 0.1 0v-2C2.2 874.9 2.1 874.9 2.1 874.9z" class="a"/><path d="M913.9 1003.2l-0.2-0.2c-7.1-5.7-14.2-10.8-20.3-14.8 -33.8-22.6-37.4-47.5-40.8-71.7 -0.5-3.3-1-6.8-1.5-10.1 -4.7-28.3-27.6-35.2-46-36 -18.4-0.8-27.4-9.8-37.4-26.2l-1.8-2.9c-9.1-15.2-12.2-20.3-35.3-13.6 -7.7 2.2-12 6-12.9 11.2 -1.4 9 8.4 20.2 18.7 27.3 18.1 12.4 19.2 35 3.5 69 -11.6 25.1-37.5 50.6-55.5 66.4 -1 0.9-1.9 1.7-2.9 2.5h3.2c18.2-15.8 45-42 57-67.9 16.2-35.1 14.9-58.5-4.2-71.5 -9.5-6.5-19.1-17.2-17.8-25.3 0.7-4.3 4.6-7.6 11.5-9.6 21.6-6.3 23.8-2.6 33 12.7l1.8 2.9c10.4 17 19.6 26.4 39 27.2 17.6 0.7 39.6 7.3 44.1 34.3 0.6 3.3 1 6.8 1.5 10.1 3.5 24.6 7.1 50 41.7 73.1 4.9 3.3 10.6 7.2 16.3 11.7 1 0.8 2.1 1.6 3.1 2.4h3.2C914.5 1003.6 914.2 1003.4 913.9 1003.2z" class="a"/><path d="M108.8 1003.2c-0.2-0.5-0.5-1-0.8-1.6 -6.5-13.6-11.6-27.8-15.2-42.5 -7.9-32-18.1-53.8-31.5-66.7 -11.5-11.1-25.5-16.4-45.4-17l-4.3-0.1c-3.1-0.1-6.3-0.1-9.4-0.4v2c3.1 0.2 6.2 0.3 9.3 0.4l4.3 0.1c34.2 1.1 58.6 15.3 75.1 82.2 3.6 14.5 8.6 28.5 14.9 42 0.4 0.8 0.7 1.5 1.1 2.3h2.2C109.1 1003.6 108.9 1003.4 108.8 1003.2z" class="a"/><path d="M566.8 1001.6c3.6-7.8 7.8-17.1 12.8-27.9 8.5-18.3 8-35.1-1.3-46.1 -8.3-9.7-22.4-13.3-36.8-9.3 -29 8-81.3-2-98-18.7 -7.1-7.1-6.1-19.2-5.1-32 1.3-17.1 2.8-36.4-14-49.1 -8.8-6.6-19.5-8.3-32-4.8 -23.6 6.6-45.5 29.1-49.5 39.2 -5.8 14.4-36.3 26.4-63.3 37l-1.1 0.5c-28.2 11.1-37.2 53.9-37.6 55.8 0 0.2-3 24.3-3 45.1 0 3.1-0.1 6.6-0.4 10.3 0 0.6-0.1 1.2-0.1 1.8v0.4c0 0 0 0.1 0 0.1h1.8c0-0.1 0-0.2 0-0.3v-0.3c0.1-0.7 0.1-1.3 0.2-1.9 0.3-3.7 0.4-7.2 0.4-10.3 0-20.7 3-44.6 3-44.8 0.1-0.4 9.2-43.6 36.4-54.3l1.2-0.4c28.7-11.3 58.3-22.9 64.4-38.1 3.8-9.5 25.6-31.8 48.2-38 11.8-3.3 22-1.8 30.3 4.5 15.9 12.1 14.5 30 13.2 47.4 -1 13.3-2 25.8 5.7 33.5 17.1 17.2 70.4 27.4 100 19.3 13.7-3.8 27-0.5 34.8 8.7 8.8 10.4 9.2 26.4 1.1 44 -5.2 11.2-9.6 20.8-13.2 28.7l-0.8 1.7 -0.1 0.3 -0.2 0.4h2.4C566.1 1003.1 566.5 1002.4 566.8 1001.6z" class="a"/><path d="M973.4 245.5c-4.7-1.4-9.6-2.8-14.6-3.7 -16.4-3.1-30.7-0.7-42.4 7.1 -5.1 3.4-10.4 5.4-16.1 7.4l-2.6 1c-4.2 1.6-11.3 4.2-12.1 11.1 -0.5 3.1 0.3 6.3 2.2 8.8 4.1 5.1 12.8 6 19.9 6.8 1.7 0.2 3.3 0.4 4.7 0.6 5.8 0.9 13.1 2.6 18.7 7.5 1.4 1.2 2.7 2.7 4 4 1.5 1.7 3.2 3.4 4.9 4.9 3.3 2.7 6.9 5 10.8 6.9 7.3 3.5 15.1 5.6 23.1 6.3 2.9 0.2 5.8 0.2 8.7-0.1 2.9-0.2 5.8-0.2 8.7 0 3.7 0.5 7.3 1.6 10.7 3.1v-2.2c-3.4-1.4-6.9-2.4-10.5-2.9 -3-0.3-6-0.3-9.1 0 -2.8 0.2-5.6 0.3-8.4 0.1 -7.8-0.6-15.3-2.7-22.4-6 -3.7-1.8-7.2-4-10.4-6.6 -1.7-1.5-3.3-3-4.7-4.7 -1.3-1.4-2.6-2.8-4.1-4.1 -6-5.3-13.7-7.1-19.7-8 -1.4-0.2-3.1-0.4-4.8-0.6 -6.6-0.7-14.9-1.6-18.5-6.1 -1.6-2.1-2.2-4.8-1.8-7.3 0.6-5.2 5.6-7.5 10.8-9.4l2.6-1c5.8-2.1 11.3-4.1 16.6-7.6 11.2-7.5 25-9.7 40.9-6.8 4.9 0.9 9.7 2.3 14.4 3.7 4.4 1.3 8.9 2.6 13.5 3.5 5 1 10.1 1.8 15.7 2.4v-2.1c-5.4-0.6-10.5-1.4-15.3-2.4C982.2 248.1 977.7 246.8 973.4 245.5z" class="a"/><path d="M972.7 1001.7c-1.6-2.1-3.3-4.1-4.9-5.9 -10.5-11.7-22.9-21.6-36.7-29.3 -63.7-32.9-57-72.6-53.5-93.9 1.2-7.2-0.3-13.1-4.4-17.4 -9.2-9.7-30-9.6-45.7-7.8 -25.9 3-34.8-8.6-51.1-29.6 -18.6-24.1-52-12.4-70.2-3.3 -22 11-37.1 4.5-64.1-9 -29.7-14.8-58.9-0.8-69.2 13.3 -1.4 1.6-1.7 3.8-0.9 5.8 4.4 9.9 41.6 14.9 76.2 18.8 3.2 0.4 6 0.7 8.5 1 24.7 3 63.2 18.5 68.1 49.2 2.7 16.6-14.7 36.6-28.2 44.7 -6.7 4-12.1 5.1-15 2.9 -2.8-2.1-3.1-7.5-0.8-15.6 4.6-16.4 3.2-30.5-4.1-41.9 -11.4-17.7-33-22.9-41.7-24.3 -4.9-0.8-11.1-1.4-18.3-2 -29.6-2.7-74.3-6.9-87-31.4 -10.5-20.4 6.5-30 18.9-37 6.1-3.4 10.9-6.1 11.3-9.5 0.1-0.9-0.2-1.8-0.9-2.5 -3.5-3.8-17.6-3.3-40.4-2.1 -12 0.6-24.5 1.3-32.6 0.5 -11.8-1.1-17.3 3.7-18.6 8.6 -1.5 5.8 2.3 14 14.1 19.4 20.3 9.1 31.2 24.1 28.4 38.9 -2.9 15.5 10.4 28.6 34.8 34.2 5.3 1.2 12.9 1.5 21.7 1.8 28.7 1.1 68.1 2.6 81.6 35.6C663.4 952.5 637 993.6 631.4 1001.7c-0.4 0.6-0.7 1-0.9 1.2l-0.1 0.2c-0.3 0.3-0.5 0.6-0.8 0.9h2.7l0.1-0.1 0.1-0.2 0.1-0.1 0.1-0.1 0.1-0.1 0.1-0.2 0.1-0.1 0.2-0.2 0.1-0.1 0.2-0.3 0.1-0.1 0.3-0.4 0.1-0.1 0.4-0.5c7.1-10.5 31.2-50.6 15.6-88.7 -14-34.2-55.7-35.8-83.4-36.8 -8.7-0.3-16.2-0.6-21.3-1.8 -23.2-5.3-35.9-17.5-33.2-31.8 3-15.8-8.4-31.6-29.6-41.1 -10.7-4.8-14.2-12.2-13-17 1.4-5.2 7.7-7.9 16.5-7.1 8.3 0.8 20.8 0.1 32.9-0.5 16.7-0.9 35.7-1.8 38.9 1.5 0.2 0.2 0.4 0.6 0.3 0.9 -0.3 2.3-5.1 5.1-10.2 8 -12.4 7-31.1 17.5-19.7 39.6 13.2 25.5 58.5 29.7 88.5 32.5 7.2 0.7 13.4 1.3 18.2 2 8.5 1.4 29.4 6.4 40.3 23.4 7 10.9 8.3 24.5 3.9 40.3 -2.5 9-2 15 1.6 17.7 3.6 2.7 9.7 1.7 17.2-2.8 14-8.4 32-29.3 29.2-46.8 -5.1-31.8-44.6-47.8-69.9-50.8 -2.4-0.3-5.3-0.6-8.5-1 -24.6-2.8-70.3-7.9-74.5-17.6 -0.5-1.3-0.2-2.8 0.7-3.8 10-13.6 38.1-27 66.8-12.7 17.8 8.9 30.6 14.8 43.5 14.8 7.1 0 14.3-1.8 22.4-5.8 17.7-8.8 50-20.2 67.8 2.7 16.7 21.6 25.9 33.5 52.9 30.4 15.3-1.8 35.4-2 44.1 7.2 3.6 3.8 4.9 9.1 3.8 15.7 -3.4 20.3-10.4 62.5 54.5 96.1 13.6 7.5 25.8 17.3 36.2 28.9 1.3 1.4 2.6 3 3.8 4.5 0.4 0.5 0.9 1.1 1.3 1.6l0.1 0.2 0.7 0.9h2C973.8 1003.1 973.3 1002.4 972.7 1001.7z" class="a"/><path d="M1001.9 875v0.6c-5.4 0-10.5-0.5-15.1-2.8 -9-4.6-16-12.5-19.6-22 -3.4-8.7-11.7-15.4-23.3-18.8 -14.6-4.3-32.4-2.7-41.3 3.8 -8.4 6.1-6.7 11.1-4.4 18.2 2 6 4.5 13.6 2.3 25.3 -5.7 30.4 11.5 48.4 55.7 58.6 16.4 3.8 31.4 13.6 43.4 28.3l0.6 0.7c0.6 0.7 1.1 1.5 1.7 2.2v-3.9c-12.3-15.4-27.9-25.7-45-29.6 -43.5-10-59.7-26.8-54.2-56.2 2.3-12.2-0.4-20.4-2.4-26.3 -2.3-6.9-3.6-10.7 3.6-15.9 8.5-6.1 25.5-7.6 39.5-3.5 11 3.2 18.8 9.5 22 17.6 3.8 9.9 11.1 18.1 20.5 23 4.9 2.5 10.3 3 15.9 3v-2.2C1002 875 1002 875 1001.9 875z" class="a"/><path d="M608.5 991.6c17.6-39.6 2.2-69 1.3-70.5 -12.7-29.9-39.1-28.1-67-26.2 -17.2 1.2-35 2.4-51-3.4 -14-5.1-21.7-9.9-24.1-15.2 -2.1-4.5-0.2-9.2 1.9-14.7 1.8-4.5 3.8-9.7 3.8-15.6 0-19.1-15.4-31.8-38.7-51l-5.4-4.4c-16.9-14-36.5-32.2-37.8-48.7 -0.5-6.3 1.5-11.9 6.1-17.2 10.4-12 38 3.3 64.7 18.1 18.4 10.2 35.8 19.9 48.3 21.4 21.2 2.5 30.9-1.7 50.4-10.1 9.2-4 20.7-8.9 36.6-14.5 30.3-10.7 45.2-1.7 59.5 7 8.6 5.2 17.5 10.6 29.3 11.3 31.9 1.9 50.3-15.4 77.4-52.3 32.2-44.1 95.8-29.4 108.2-26 22.8 6.2 24 25.6 25.1 44.3 0.2 5 0.7 10 1.5 15 3.7 21.4 21.6 19.1 42.2 16.5l1.7-0.2c8.7-1.1 17.3 1.9 24.2 8.4 6.5 6.2 10.7 15 10.2 21.5 -0.9 11.9 6.6 30.8 6.9 31.6l0.1 0.1c5.7 9.5 11.9 16.2 18.4 21.3v-3.1c-6.5-5.5-12-12-16.3-19.4 -0.5-1.3-7.6-19.5-6.7-30.6 0.5-7-3.9-16.5-10.8-23.1 -7.3-6.9-16.4-10.1-25.8-9l-1.7 0.2c-21.3 2.7-36.6 4.6-40-14.9 -0.7-4.9-1.2-9.8-1.4-14.8 -1.2-18.5-2.5-39.5-26.6-46.1 -12.6-3.4-77.3-18.3-110.3 26.8 -26.6 36.3-44.7 53.3-75.6 51.5 -11.4-0.7-19.6-5.7-28.4-11 -14.8-8.9-30-18.2-61.2-7.2 -16 5.6-27.5 10.6-36.7 14.6 -19.1 8.3-28.7 12.4-49.3 10 -12.1-1.4-30.1-11.4-47.5-21.1 -27.4-15.2-55.7-30.9-67.1-17.7 -4.9 5.7-7.1 11.9-6.6 18.7 1.4 17.2 20.3 35 38.6 50.1l5.4 4.4c22.9 18.8 38 31.3 38 49.4 0 5.5-1.8 10.3-3.6 14.9 -2.2 5.6-4.2 11-1.8 16.2 2.7 5.8 10.7 11 25.2 16.3 16.5 6 34.5 4.7 51.9 3.5 28.4-1.9 52.9-3.6 65 25l0.1 0.1c0.2 0.3 16.2 29.2-1.4 68.7 -1.6 3.6-3.3 7.2-5 10.7 -0.4 0.9-0.9 1.8-1.4 2.7h2.1C604.7 999.9 606.7 995.8 608.5 991.6z" class="a"/></svg>