<!-- Generator: Adobe Illustrator 21.0.2, SVG Export Plug-In  -->
<svg version="1.1"
	 xmlns="http://www.w3.org/2000/svg" xmlns:xlink="http://www.w3.org/1999/xlink" xmlns:a="http://ns.adobe.com/AdobeSVGViewerExtensions/3.0/"
	 x="0px" y="0px" width="15.4px" height="15px" viewBox="0 0 15.4 15" style="enable-background:new 0 0 15.4 15;"
	 xml:space="preserve">
<style type="text/css">
	.st0{fill:#F1F2F3;}
</style>
<defs>
</defs>
<path class="st0" d="M15.4,14.2c0,0.5-0.4,0.8-0.9,0.8h-3.9V9.2h2L13,6.9h-2.3V5.5c0-0.7,0.2-1.1,1.2-1.1l1.2,0v-2
	c-0.2,0-0.9-0.1-1.8-0.1c-1.8,0-3,1.1-3,3v1.7h-2v2.3h2V15H0.9C0.4,15,0,14.6,0,14.2V0.8C0,0.4,0.4,0,0.9,0h13.7
	c0.5,0,0.9,0.4,0.9,0.8V14.2"/>
</svg>