<!-- Generator: Adobe Illustrator 21.0.2, SVG Export Plug-In  -->
<svg version="1.1"
	 xmlns="http://www.w3.org/2000/svg" xmlns:xlink="http://www.w3.org/1999/xlink" xmlns:a="http://ns.adobe.com/AdobeSVGViewerExtensions/3.0/"
	 x="0px" y="0px" width="89.2px" height="86.7px" viewBox="0 0 89.2 86.7" style="enable-background:new 0 0 89.2 86.7;"
	 xml:space="preserve">
<style type="text/css">
	.st0{clip-path:url(#SVGID_2_);fill-rule:evenodd;clip-rule:evenodd;fill:#C7B299;}
	.st1{clip-path:url(#SVGID_4_);fill-rule:evenodd;clip-rule:evenodd;fill:#C7B299;}
</style>
<defs>
</defs>
<g>
	<defs>
		<rect id="SVGID_1_" x="0" y="0" width="89.2" height="86.7"/>
	</defs>
	<clipPath id="SVGID_2_">
		<use xlink:href="#SVGID_1_"  style="overflow:visible;"/>
	</clipPath>
	<path class="st0" d="M89,65.5c-0.5-1-2-1.6-4.2-2.8c-2.2-1.2-13-7-15-7.8c-2-0.8-3.5-1.2-5.1,0.9c-1.6,2.2-6,7-7.4,8.5
		c-1.4,1.4-2.7,1.6-4.9,0.4c-2.2-1.2-9.3-3.8-17.6-11.8C28.5,46.8,24.3,39.3,23,37c-1.2-2.3,0-3.5,1.2-4.5c1-1,2.3-2.5,3.5-3.8
		c1.2-1.3,1.6-2.2,2.4-3.6c0.8-1.5,0.5-2.8,0-3.9C29.5,20,25.5,8.8,23.8,4.3c-1.7-4.5-3.6-3.9-4.9-3.9c-1.3,0-2.8-0.3-4.3-0.3
		c-1.5-0.1-3.9,0.4-6.1,2.6C6.4,4.7,0.4,9.9,0,20.9c-0.4,11,7.2,21.9,8.3,23.5c1.1,1.5,14.5,25.4,36.9,35.2
		c22.4,9.8,22.5,6.8,26.6,6.6c4.1-0.2,13.4-4.9,15.5-10.1C89.3,70.9,89.5,66.5,89,65.5"/>
</g>
</svg>