<!-- Generator: Adobe Illustrator 21.0.2, SVG Export Plug-In  -->
<svg version="1.1"
	 xmlns="http://www.w3.org/2000/svg" xmlns:xlink="http://www.w3.org/1999/xlink" xmlns:a="http://ns.adobe.com/AdobeSVGViewerExtensions/3.0/"
	 x="0px" y="0px" width="15.4px" height="15px" viewBox="0 0 15.4 15" style="enable-background:new 0 0 15.4 15;"
	 xml:space="preserve">
<style type="text/css">
	.st0{fill:#F1F2F3;}
</style>
<defs>
</defs>
<path class="st0" d="M13.6,0H1.8C0.8,0,0,0.8,0,1.8v11.4c0,1,0.8,1.8,1.8,1.8h11.8c1,0,1.8-0.8,1.8-1.8V1.8C15.4,0.8,14.6,0,13.6,0
	L13.6,0z M11.1,2.3c0-0.3,0.2-0.5,0.5-0.5H13c0.3,0,0.5,0.2,0.5,0.5v1.4c0,0.3-0.2,0.5-0.5,0.5h-1.4c-0.3,0-0.5-0.2-0.5-0.5V2.3
	L11.1,2.3z M7.7,4.6c1.6,0,3,1.3,3,2.9c0,1.6-1.3,2.9-3,2.9c-1.6,0-3-1.3-3-2.9C4.8,5.9,6.1,4.6,7.7,4.6L7.7,4.6z M14,13.1
	c0,0.3-0.2,0.5-0.5,0.5H1.9c-0.3,0-0.5-0.2-0.5-0.5v-7h1.9C3.1,6.4,3,7.1,3,7.5c0,2.5,2.1,4.6,4.7,4.6c2.6,0,4.7-2,4.7-4.6
	c0-0.4-0.1-1.1-0.4-1.4H14V13.1L14,13.1z"/>
</svg>