<!-- Generator: Adobe Illustrator 21.0.2, SVG Export Plug-In  -->
<svg version="1.1"
	 xmlns="http://www.w3.org/2000/svg" xmlns:xlink="http://www.w3.org/1999/xlink" xmlns:a="http://ns.adobe.com/AdobeSVGViewerExtensions/3.0/"
	 x="0px" y="0px" width="356.2px" height="46.5px" viewBox="0 0 356.2 46.5" style="enable-background:new 0 0 356.2 46.5;"
	 xml:space="preserve">
<style type="text/css">
	.st0{fill:#FF4C4E;}
</style>
<defs>
</defs>
<path d="M285.8,26.4h-17.6l-2.7,5H289L285.8,26.4z M327.1,7.4v32h29.1v-5H333v-8.8h19.2v-5H333v-8.2h22.7v-5L327.1,7.4L327.1,7.4z
	 M224.4,20.6H204v-8.2h19.2v3.4h5.9v-3.3c0-3-2.4-5.4-5.4-5.4h-20.1c-3,0-5.4,2.4-5.4,5.4v7.9c0,3,2.5,5.3,5.4,5.3H224v8.8h-20v-4.3
	h-5.9V34c0,3,2.4,5.4,5.4,5.4c0,0,0,0,0,0h20.9c3,0,5.4-2.4,5.4-5.4v-8.2C229.9,22.9,227.5,20.6,224.4,20.6L224.4,20.6L224.4,20.6z
	 M293.6,7.4v5h11.2v27h5.9v-27h11.2v-5L293.6,7.4L293.6,7.4z M232.5,7.4v5h11.2v27h5.9v-27h11.2v-5L232.5,7.4L232.5,7.4L232.5,7.4z
	 M130.3,46.5h7L130,39h-6.7L130.3,46.5C130.3,46.5,130.3,46.5,130.3,46.5z M132.7,34.4h-24.1v-22h24.1L132.7,34.4L132.7,34.4z
	 M133.5,7.4h-25.7c-2.8,0-5.1,2.1-5.1,4.9v22c0,2.8,2.3,5.1,5.1,5.1h25.7c2.8,0,5.1-2.3,5.1-5.1v-22C138.6,9.5,136.3,7.4,133.5,7.4
	L133.5,7.4L133.5,7.4z M90.5,7.4v27H74.9V29H69v5.3c0,2.8,2.3,5.1,5.1,5.1h17.2c2.8,0,5.1-2.3,5.1-5.1c0,0,0,0,0,0V7.4
	C96.4,7.4,90.5,7.4,90.5,7.4z M163,7.4v32h29.1v-5h-23.3v-8.8H188v-5h-19.2v-8.2h22.7v-5L163,7.4L163,7.4z M277.2,12.4l13.7,27.1
	h5.9L280,7.1h-5.6l-16.9,32.3h6L277.2,12.4L277.2,12.4z"/>
<path class="st0" d="M50.5,12.6L27.3,0.3c-0.8-0.4-2-0.4-2.8,0L1.5,12.4c-0.8,0.4-0.8,1.1,0,1.5L7.3,17c0.8,0.4,2,0.4,2.8,0
	l15.7-8.1l17.4,8.9v19.6c0,0-34.8,0-34.8,0V29c0-0.9-0.6-1.9-1.4-2.4l-5.6-2.9c-0.8-0.4-1.4,0-1.4,0.8v19.2c0,0.9,0.8,1.6,1.7,1.6
	l48.6,0c0.9,0,1.6-0.7,1.6-1.6l0-28.8C51.9,14.1,51.2,13,50.5,12.6L50.5,12.6z"/>
</svg>