<!-- Generator: Adobe Illustrator 21.0.2, SVG Export Plug-In  -->
<svg version="1.1"
	 xmlns="http://www.w3.org/2000/svg" xmlns:xlink="http://www.w3.org/1999/xlink" xmlns:a="http://ns.adobe.com/AdobeSVGViewerExtensions/3.0/"
	 x="0px" y="0px" width="280.7px" height="245.4px" viewBox="0 0 280.7 245.4" style="enable-background:new 0 0 280.7 245.4;"
	 xml:space="preserve">
<style type="text/css">
	.st0{fill:#FF4C4E;}
</style>
<defs>
</defs>
<path class="st0" d="M272.9,68.3L147.4,1.7c-4.2-2.2-11.1-2.2-15.3,0L8.2,67.2c-4.2,2.2-4.2,5.9,0,8.1l31.3,16.8
	c4.2,2.2,11.1,2.3,15.3,0.1l85-44l93.9,48.1v106c0,0-188.3,0.1-188.3,0.1v-45.7c0-4.7-3.4-10.5-7.6-12.7L7.6,128.4
	c-4.2-2.2-7.6-0.2-7.6,4.5v103.7c0,4.8,4.3,8.6,9,8.6l263.1,0.1c4.7,0,8.6-3.9,8.6-8.6l-0.2-155.8C280.5,76.2,277.1,70.5,272.9,68.3
	L272.9,68.3z"/>
</svg>